<svg width="46" height="42" viewBox="0 0 46 42" fill="none" xmlns="http://www.w3.org/2000/svg">
<g clip-path="url(#clip0_3_280)">
<path d="M25.0842 2.04035C25.0842 3.16703 24.1854 4.0807 23.077 4.0807C21.9687 4.0807 21.0698 3.16703 21.0698 2.04035C21.0698 0.913673 21.9687 0 23.077 0C24.1854 0 25.0842 0.913673 25.0842 2.04035Z" fill="#18979E"/>
<path d="M21.5331 4.47869C21.5331 4.47869 18.1933 5.6035 17.0657 3.95552C15.8406 2.14032 15.62 0.350342 12.4337 0.350342C9.24734 0.350342 7.75573 3.71449 6.38636 5.2214C5.01698 6.7283 7.97631 7.45046 10.6737 4.58799C10.6737 4.58799 8.61504 6.92636 11.1057 6.84788C13.293 6.77408 14.0448 5.33631 14.0448 5.33631C14.0448 5.33631 12.4447 7.64291 14.1422 7.52333C15.0888 7.48596 15.9803 7.06369 16.6172 6.35181C16.6172 6.35181 15.9426 7.94747 17.4765 8.14085C18.3156 8.23988 19.7199 8.26604 20.7244 7.38787C21.4247 6.76474 21.5322 4.47869 21.5322 4.47869H21.5331Z" fill="#18979E"/>
<path d="M5.39387 6.29387C5.39387 6.29387 4.36454 8.77331 0 11.7554C0 11.7554 1.65704 13.848 8.37893 6.97866C8.37893 6.97866 5.47567 7.91475 5.39387 6.29294V6.29387Z" fill="#18979E"/>
<path d="M9.23279 6.7283C9.23279 6.7283 8.20346 9.18251 3.79297 12.0702C3.79297 12.0702 5.43438 14.2152 12.2077 7.48222C12.2077 7.48222 9.29988 8.35105 9.23279 6.72924V6.7283Z" fill="#18979E"/>
<path d="M12.9328 7.51303C12.9328 7.51303 11.9549 9.6057 7.75488 12.0487C7.75488 12.0487 9.33472 13.8957 15.7781 8.18287C15.7781 8.18287 12.8905 9.29273 12.9319 7.51303H12.9328Z" fill="#18979E"/>
<path d="M16.304 8.27164C16.304 8.27164 15.465 10.0719 11.8623 12.1636C11.8623 12.1636 13.6066 13.6444 19.1393 8.74249C19.1393 8.74249 16.3858 9.46464 16.3031 8.27164H16.304Z" fill="#18979E"/>
<path d="M24.4457 4.47869C24.4457 4.47869 27.7855 5.6035 28.9132 3.95552C30.1383 2.14032 30.3589 0.350342 33.5452 0.350342C36.7315 0.350342 38.2231 3.71449 39.5925 5.2214C40.9619 6.7283 38.0026 7.43458 35.3153 4.57304C35.3153 4.57304 37.3739 6.91141 34.8833 6.83294C32.696 6.75913 31.9442 5.32136 31.9442 5.32136C31.9442 5.32136 33.5443 7.61769 31.8257 7.50838C30.8791 7.47195 29.9867 7.04968 29.3507 6.33686C29.3507 6.33686 30.0354 7.9484 28.5015 8.13712C27.6624 8.23614 26.2581 8.2623 25.2536 7.38413C24.5744 6.76661 24.4448 4.48056 24.4448 4.48056L24.4457 4.47869Z" fill="#18979E"/>
<path d="M40.6061 6.29387C40.6061 6.29387 41.6355 8.77331 46 11.7554C46 11.7554 44.343 13.848 37.6211 6.97866C37.6211 6.97866 40.5244 7.91475 40.6061 6.29294V6.29387Z" fill="#18979E"/>
<path d="M36.7674 6.7283C36.7674 6.7283 37.7968 9.18251 42.2072 12.0702C42.2072 12.0702 40.5658 14.2152 33.7925 7.48222C33.7925 7.48222 36.7003 8.35105 36.7674 6.72924V6.7283Z" fill="#18979E"/>
<path d="M33.067 7.51303C33.067 7.51303 34.0449 9.6057 38.2449 12.0487C38.2449 12.0487 36.6651 13.8957 30.2217 8.18287C30.2217 8.18287 33.1093 9.29273 33.068 7.51303H33.067Z" fill="#18979E"/>
<path d="M29.6961 8.27164C29.6961 8.27164 30.5352 10.0719 34.1378 12.1636C34.1378 12.1636 32.3935 13.6444 26.8608 8.74249C26.8608 8.74249 29.6345 9.46464 29.697 8.27164H29.6961Z" fill="#18979E"/>
<path d="M32.9633 15.5904C32.9633 14.7271 32.5561 13.21 30.0554 12.0749C29.3992 11.576 28.595 11.3191 27.7753 11.348C27.0906 11.348 26.7873 11.8292 26.2984 12.0851C25.6706 12.4093 24.9446 12.5719 24.9446 13.1315C24.9446 14.1152 26.211 14.9102 27.7753 14.9102C28.0988 14.9084 28.4223 14.8701 28.7375 14.7953C29.2035 14.9598 29.6253 15.2344 29.9672 15.596C29.6327 16.1191 27.6052 17.1655 24.0026 17.328L24.2958 5.19616C24.2958 4.75147 23.7397 4.38058 23.0449 4.38058C22.3501 4.38058 21.784 4.75241 21.7996 5.19616L22.0882 17.3234C18.5416 17.1561 16.5399 16.1042 16.2054 15.5969C16.5795 15.2139 17.0362 14.9261 17.538 14.7542C17.8183 14.8093 18.1023 14.8374 18.3872 14.8374C19.9312 14.8374 21.2179 14.0367 21.2179 13.0586C21.2179 12.5037 20.4928 12.3421 19.8641 12.0123C19.3495 11.761 19.0719 11.2798 18.3872 11.2798C17.4948 11.2378 16.6217 11.5517 15.9527 12.1533C14.1771 13.0063 13.1992 14.1993 13.1992 15.5904C13.1992 17.3271 14.6201 18.5621 16.6631 19.3469C15.5308 20.0326 14.8057 20.9528 14.8057 22.1094C14.8057 23.6789 16.1539 24.8401 18.0793 25.5361C17.3551 26.0275 16.902 26.8384 16.8598 27.7232C16.8598 28.9629 17.8376 30.0204 19.3917 30.6632C18.6023 31.1163 18.0922 31.9459 18.038 32.8661C18.038 34.0908 19.0673 35.126 20.6113 35.6753C19.9735 36.035 19.5581 36.6983 19.5103 37.4382C19.5103 38.7255 20.8484 39.7504 22.5983 39.9027L22.6654 41.6244C22.6654 41.8328 22.8308 42.0009 23.0357 42.0009C23.2407 42.0009 23.407 41.8328 23.407 41.6244L23.4484 39.9447C25.2654 39.8195 26.6448 38.7779 26.6448 37.4699C26.6108 36.73 26.2092 36.0583 25.5797 35.6865C27.1237 35.1633 28.153 34.117 28.153 32.8773C28.0988 31.9571 27.5896 31.1275 26.7992 30.6744C28.3432 30.0307 29.3312 28.9741 29.3312 27.7344C29.2889 26.8506 28.8358 26.0387 28.1116 25.5473C30.037 24.8513 31.3853 23.7004 31.3853 22.1206C31.3853 20.964 30.6601 20.0279 29.5279 19.3581C31.5452 18.5621 32.9651 17.328 32.9651 15.5913L32.9633 15.5904ZM27.4564 12.1477C27.8368 11.96 28.2798 11.96 28.6612 12.1477C28.2908 12.3766 27.8267 12.3766 27.4564 12.1477ZM18.8513 12.1477C18.4819 12.3766 18.0168 12.3766 17.6474 12.1477C18.027 11.959 18.4709 11.959 18.8513 12.1477ZM17.3698 22.1197C17.4728 21.7114 19.094 20.6968 22.1562 20.5184L22.2334 23.6994C19.1197 23.5378 17.4728 22.5064 17.3698 22.1197ZM18.9138 27.7232C18.9138 27.2943 20.036 26.5358 21.8676 26.2901H22.2996L22.3722 29.188C20.2363 29.0675 18.9083 28.194 18.9083 27.7232H18.9129H18.9138ZM19.5774 32.8661C19.5774 32.2168 20.6067 31.5058 22.1507 31.2966H22.4338L22.511 34.4832C20.7868 34.3412 19.5728 33.5677 19.5728 32.867H19.5783L19.5774 32.8661ZM20.5396 37.4382C20.5396 36.8524 21.3171 36.2087 22.4852 36.0415H22.5312L22.5983 38.8461C21.3686 38.7255 20.5396 38.0669 20.5396 37.4391V37.4382ZM25.6137 37.4382C25.6137 38.0557 24.7488 38.7302 23.4723 38.8507L23.5394 36.0462H23.6681C24.8371 36.2293 25.6146 36.873 25.6146 37.4372L25.6137 37.4382ZM23.555 34.4767L23.6322 31.2854H23.998C25.5107 31.5002 26.5713 32.2112 26.5713 32.8549C26.5713 33.4985 25.326 34.3664 23.5918 34.4982L23.5559 34.4767H23.555ZM23.6837 29.1927L23.7563 26.2891H24.2709C26.1035 26.5348 27.2248 27.2934 27.2248 27.7222C27.2248 28.151 25.8811 29.0666 23.7048 29.2132L23.6837 29.1927ZM23.8179 23.6836L23.8951 20.4922C26.983 20.6539 28.6199 21.6638 28.7586 22.0879C28.6401 22.5326 26.9674 23.5584 23.8381 23.7041L23.8169 23.6836H23.8179Z" fill="#18979E"/>
</g>
<defs>
<clipPath id="clip0_3_280">
<rect width="46" height="42" fill="white"/>
</clipPath>
</defs>
</svg>
