<svg width="40" height="32" viewBox="0 0 40 32" fill="none" xmlns="http://www.w3.org/2000/svg">
<g clip-path="url(#clip0_7_147)">
<path d="M20.8657 3.50509L24.1531 6.47236C27.3562 9.35705 22.686 14.3291 19.3936 11.2241L16.1563 8.17427L4.50684 19.5715C5.53541 20.651 6.68139 21.7079 7.88959 22.7314L18.1563 12.2762C18.7242 11.7039 19.6234 12.5455 19.0554 13.1237L8.83889 23.519C9.99691 24.4658 11.1881 25.3802 12.3682 26.2611L22.5285 16.0919C23.1015 15.5246 23.9835 16.378 23.4105 16.9453L13.3686 26.9995C14.4755 27.8145 15.5944 28.6237 16.7012 29.4388L26.412 20.2715C27.002 19.715 27.862 20.5959 27.2719 21.1465L17.7017 30.187C18.5386 30.8143 19.3143 31.4199 19.9997 31.999C26.3267 26.7075 40.1457 19.5115 39.9992 10.7955C39.8306 0.874059 27.569 -3.67419 20.8647 3.50607L20.8657 3.50509Z" fill="#18979E"/>
<path d="M19.4947 3.90621C13.0102 -3.76859 0 0.613498 0 10.7886C0 13.4973 1.47814 16.146 3.67477 18.662L15.7056 6.89021C15.9585 6.65916 16.3348 6.64834 16.5816 6.89512L20.2514 10.3471C22.3537 12.3233 25.2869 9.14074 23.308 7.36312L19.4927 3.90523H19.4937L19.4947 3.90621Z" fill="#18979E"/>
</g>
<defs>
<clipPath id="clip0_7_147">
<rect width="40" height="32" fill="white"/>
</clipPath>
</defs>
</svg>
