<svg width="613" height="692" viewBox="0 0 613 692" fill="none" xmlns="http://www.w3.org/2000/svg">
<rect x="0.823242" y="59.823" width="72" height="72" rx="16" transform="rotate(-30 0.823242 59.823)" fill="#18979E"/>
<g clip-path="url(#clip0_57_98)">
<path fill-rule="evenodd" clip-rule="evenodd" d="M64.8052 47.7463L59.4748 46.2867L57.6598 53.29L63.2774 54.8338L53.802 91.3084L48.1424 89.7531L43.5767 108.15L39.491 110.517L44.6272 88.7906L38.919 87.2277L48.3867 50.7397L53.9938 52.2806L55.8127 45.284L50.4784 43.8178L51.4091 40.2267L65.7359 44.1551L64.8052 47.7463V47.7463ZM51.1792 55.683L43.741 84.3185L51.069 86.3306L58.511 57.7018L51.1858 55.6792L51.1792 55.683Z" fill="white"/>
</g>
<rect x="26" y="406" width="96" height="96" rx="16" fill="white" fill-opacity="0.2" stroke="url(#paint0_linear_57_98)"/>
<rect x="38" y="418" width="72" height="72" rx="16" fill="white"/>
<g clip-path="url(#clip1_57_98)">
<path d="M87.7207 455.59C83.5713 455.59 79.8145 456.344 76.9986 457.641C75.5907 458.287 74.4129 459.068 73.5465 460.005C72.6801 460.943 72.125 462.084 72.125 463.321C72.1724 465.658 72.125 468.185 72.125 470.59C72.125 471.819 72.6801 472.967 73.5465 473.905C74.4129 474.842 75.5907 475.624 76.9986 476.269C79.8145 477.56 83.5713 478.321 87.7207 478.321C91.87 478.321 95.6268 477.56 98.4495 476.269C99.8574 475.624 101.035 474.842 101.902 473.905C102.768 472.967 103.323 471.819 103.323 470.59C103.337 468.205 103.296 465.624 103.323 463.321C103.323 462.091 102.768 460.95 101.902 460.005C101.035 459.061 99.8574 458.287 98.4495 457.641C95.6336 456.35 91.87 455.59 87.7207 455.59V455.59ZM87.7207 457.689C89.352 457.689 90.9088 457.825 92.3574 458.056L82.028 468.375C80.4508 468.056 79.0361 467.614 77.8718 467.077C76.6467 466.514 75.6922 465.855 75.083 465.196C74.4738 464.537 74.2166 463.925 74.2166 463.314C74.2166 462.702 74.4738 462.084 75.083 461.425C75.6922 460.766 76.6467 460.107 77.8718 459.543C80.3222 458.422 83.8353 457.682 87.7207 457.682V457.689ZM94.8145 458.579C95.8299 458.85 96.7708 459.177 97.5763 459.55C98.8014 460.114 99.7559 460.773 100.365 461.432C100.974 462.091 101.232 462.709 101.232 463.321C101.232 463.932 100.974 464.543 100.365 465.202C99.7559 465.861 98.8014 466.52 97.5763 467.084C95.1259 468.205 91.6128 468.946 87.7207 468.946C86.6038 468.946 85.5275 468.878 84.4919 468.769L94.8078 458.586L94.8145 458.579ZM74.2166 467.268C74.9883 467.927 75.9224 468.497 76.9986 468.986C79.8145 470.277 83.5713 471.038 87.7207 471.038C91.87 471.038 95.6268 470.277 98.4495 468.986C99.519 468.497 100.46 467.927 101.232 467.268V470.583C101.232 471.194 100.974 471.812 100.365 472.471C99.7559 473.13 98.8014 473.789 97.5763 474.353C95.1259 475.474 91.6128 476.215 87.7207 476.215C83.8285 476.215 80.3154 475.481 77.8718 474.353C76.6467 473.789 75.6922 473.13 75.0898 472.471C74.4806 471.812 74.2234 471.194 74.2234 470.583V467.268H74.2166Z" fill="#00B0AB" stroke="#00B0AB" stroke-width="2" stroke-miterlimit="10"/>
<path d="M65.1596 433.096L47.3437 452.804C43.4854 457.064 43.8644 463.66 48.1356 467.499C52.4001 471.337 58.9389 470.963 62.7837 466.711L80.5995 447.003C84.4511 442.743 84.072 436.147 79.8076 432.308C75.8342 428.463 68.9231 428.932 65.1596 433.096ZM78.4132 433.871C81.845 436.955 82.1361 442.173 79.0494 445.59L70.8387 454.673L58.5057 443.579L66.7029 434.51C69.8775 431.004 74.8527 430.76 78.4064 433.871H78.4132ZM69.0517 436.439L65.2814 440.42C64.882 440.841 64.9023 441.507 65.3152 441.908C65.7349 442.308 66.3983 442.288 66.7976 441.874L70.568 437.893C70.9673 437.471 70.947 436.806 70.5341 436.412C70.0941 435.977 69.4308 436.058 69.0517 436.446V436.439ZM57.1045 445.128L69.4308 456.215L61.2268 465.284C58.1266 468.708 52.9551 469.007 49.53 465.923C46.0982 462.838 45.8004 457.621 48.8938 454.204L57.1045 445.128V445.128Z" fill="#00B0AB" stroke="#00B0AB" stroke-width="2" stroke-miterlimit="10"/>
</g>
<g clip-path="url(#clip2_57_98)">
<g style="mix-blend-mode:multiply" opacity="0.13">
<path d="M310.26 692C378.939 692 434.614 686.812 434.614 680.411C434.614 674.011 378.939 668.822 310.26 668.822C241.581 668.822 185.906 674.011 185.906 680.411C185.906 686.812 241.581 692 310.26 692Z" fill="#D78533"/>
</g>
<path d="M284.908 628.578C284.05 628.578 283.282 628.017 283.03 627.161C282.838 626.467 263.783 556.978 261.255 492.685C261.211 491.607 262.053 490.707 263.118 490.663C264.167 490.603 265.099 491.46 265.143 492.523C267.641 556.373 286.593 625.434 286.77 626.113C287.051 627.146 286.445 628.209 285.41 628.505C285.233 628.549 285.07 628.578 284.893 628.578H284.908Z" fill="black"/>
<path d="M368.978 613.564C368.239 613.564 367.53 613.151 367.204 612.428C353.87 583.404 323.846 488.094 323.55 487.149C323.225 486.116 323.802 485.038 324.822 484.713C325.842 484.388 326.936 484.964 327.261 485.983C327.557 486.942 357.507 582.016 370.737 610.818C371.181 611.793 370.752 612.944 369.777 613.387C369.511 613.505 369.244 613.564 368.964 613.564H368.978Z" fill="black"/>
<path d="M219.449 404.343C217.468 452.441 223.692 486.883 223.692 486.883C309.861 504.997 356.191 474.261 356.191 474.261C355.895 455.32 350.071 422.502 343.714 392.001C298.124 416.877 239.509 408.329 219.449 404.343V404.343Z" fill="white" stroke="black" stroke-width="0.81" stroke-linecap="round" stroke-linejoin="round"/>
<path d="M220.336 389.005C219.937 394.245 219.641 399.368 219.449 404.343C239.494 408.329 298.124 416.877 343.714 392.001C342.842 387.794 341.955 383.616 341.068 379.542C294.324 403.044 238.164 393.079 220.35 388.99L220.336 389.005Z" fill="#83CCBE" stroke="black" stroke-width="0.81" stroke-linecap="round" stroke-linejoin="round"/>
<path d="M172.986 180.847C172.986 180.847 154.685 184.405 164.723 202.194C174.76 219.983 187.725 214.491 187.725 214.491C184.428 204.364 182.699 193.558 181.841 183.888C177.303 179.769 172.986 180.847 172.986 180.847V180.847Z" fill="#F4D4B3" stroke="#020303" stroke-width="0.81" stroke-linecap="round" stroke-linejoin="round"/>
<path d="M385.491 151.896C385.491 151.896 322.885 149.549 295.921 107.327C295.921 107.327 259.969 150.272 181.487 153.668C181.487 153.668 178.648 186.663 187.725 214.491C202.951 259.135 263.236 266.132 263.236 266.132C263.236 266.132 286.726 268.125 301.908 266.25C341.423 264.302 358.113 241.995 358.113 241.995C358.113 241.995 370.102 228.413 376.828 215.791C384.353 199.773 385.092 183.282 385.092 183.282C385.092 183.282 387.93 169.376 385.506 151.911L385.491 151.896Z" fill="#F4D4B3" stroke="#020303" stroke-width="0.81" stroke-linecap="round" stroke-linejoin="round"/>
<path d="M385.092 183.282C385.092 183.282 384.368 199.787 376.829 215.79C376.829 215.79 393.267 224.693 401.043 207.051C408.819 189.424 394.154 178.913 385.092 183.268V183.282Z" fill="#F4D4B3" stroke="#020303" stroke-width="0.81" stroke-linecap="round" stroke-linejoin="round"/>
<path d="M356.664 91.811L366.214 73.7707L384.028 35.2688C384.028 35.2688 358.128 2.27355 293.009 0.664388C227.89 -0.95954 199.063 31.3862 199.063 31.3862L210.402 65.8429L214.615 78.3029C214.615 78.3029 292.521 48.3783 356.664 91.811Z" fill="white" stroke="black" stroke-width="0.81" stroke-linecap="round" stroke-linejoin="round"/>
<path d="M415.707 185.704C427.371 142.994 403.319 110.486 403.319 110.486C391.167 81.8608 366.229 73.7707 366.229 73.7707L356.679 91.8111C292.536 48.3784 214.63 78.303 214.63 78.303L210.416 65.843C210.416 65.843 169.926 84.7692 161.559 123.345C152.142 166.778 173.001 180.847 173.001 180.847C173.001 180.847 177.332 179.769 181.856 183.888C180.348 167.014 181.501 153.668 181.501 153.668C259.984 150.273 295.936 107.327 295.936 107.327C322.9 149.549 385.506 151.896 385.506 151.896C387.93 169.361 385.092 183.268 385.092 183.268C394.168 178.898 408.818 189.409 401.042 207.051C393.267 224.678 376.828 215.791 376.828 215.791C374.3 220.515 371.048 225.387 367.958 229.624C367.958 229.624 404.043 228.398 415.707 185.704V185.704Z" fill="#B97A30" stroke="black" stroke-width="0.48" stroke-linecap="round" stroke-linejoin="round"/>
<path d="M439.759 166.615C432.634 110.324 403.319 110.486 403.319 110.486C403.319 110.486 427.371 142.994 415.707 185.704C404.043 228.413 367.958 229.624 367.958 229.624C362.799 236.68 358.128 241.995 358.128 241.995C341.127 272.082 355.378 289.059 355.378 289.059L370.767 288.247C366.066 276.762 370.279 267.225 370.279 267.225C369.791 281.619 376.104 289.059 376.104 289.059H392.306C388.58 281.294 390.532 268.362 390.532 268.362C392.468 280.334 399.756 288.262 399.756 288.262L417.082 286.003C394.08 253.333 446.884 222.921 439.759 166.63V166.615Z" fill="#B97A30" stroke="black" stroke-width="0.48" stroke-linecap="round" stroke-linejoin="round"/>
<path d="M356.989 297.799C336.086 268.686 301.923 266.25 301.923 266.25C301.494 266.31 301.065 266.354 300.637 266.398C300.652 266.413 314.222 278.873 301.76 289.059C290.806 298.02 280.709 287.598 280.709 287.598C280.709 287.598 267.316 296.013 258.032 289.059C249.606 282.755 256.731 270.783 256.731 270.783C225.303 271.432 195.826 305.402 195.826 305.402C203.602 320.933 222.391 330.632 222.391 330.632L232.443 316.4C225.658 341.66 222.051 366.476 220.351 389.005C238.164 393.094 294.339 403.059 341.068 379.556C334.031 347.093 327.202 320.121 327.202 320.121L331.252 324.328C345.503 316.4 357.004 297.799 357.004 297.799H356.989Z" fill="white" stroke="black" stroke-width="0.81" stroke-linecap="round" stroke-linejoin="round"/>
<path d="M293.009 266.93C284.435 267.269 275.255 266.885 269.386 266.561C269.356 271.934 270.229 286.815 280.695 287.613C290.733 288.38 292.654 273.425 293.009 266.93Z" fill="#F4D4B3" stroke="#020303" stroke-width="0.81" stroke-linecap="round" stroke-linejoin="round"/>
<path d="M269.386 266.546C265.646 266.324 263.251 266.132 263.251 266.132C259.082 267.062 256.731 270.783 256.731 270.783C256.731 270.783 249.606 282.755 258.032 289.059C267.316 296.013 280.709 287.598 280.709 287.598C270.228 286.8 269.371 271.919 269.4 266.546H269.386Z" fill="#83CCBE" stroke="black" stroke-width="0.81" stroke-linecap="round" stroke-linejoin="round"/>
<path d="M300.622 266.398C298.227 266.649 295.64 266.826 293.009 266.929C292.654 273.425 290.732 288.365 280.695 287.612C280.695 287.612 290.792 298.02 301.746 289.074C314.208 278.887 300.637 266.427 300.622 266.413V266.398Z" fill="#83CCBE" stroke="black" stroke-width="0.81" stroke-linecap="round" stroke-linejoin="round"/>
<path d="M430.357 378.833C430.017 378.833 429.662 378.744 429.352 378.552C390.724 355.404 346.76 311.971 346.316 311.528C345.562 310.776 345.547 309.55 346.316 308.783C347.07 308.015 348.297 308.015 349.066 308.783C349.509 309.211 393.134 352.333 431.362 375.231C432.279 375.777 432.575 376.973 432.028 377.888C431.658 378.493 431.022 378.833 430.357 378.833V378.833Z" fill="black"/>
<path d="M185.522 338.619C185.33 338.619 185.123 338.604 184.916 338.56C182.876 338.131 176.105 332.536 157.316 289.842C156.887 288.867 157.316 287.716 158.307 287.288C159.297 286.86 160.45 287.303 160.864 288.277C170.059 309.181 181.442 331.562 185.33 334.515C193.741 326.646 202.892 316.002 202.981 315.898C203.675 315.086 204.902 314.983 205.715 315.692C206.529 316.386 206.632 317.611 205.922 318.423C205.819 318.541 196.136 329.805 187.399 337.88C186.867 338.368 186.202 338.619 185.492 338.619H185.522Z" fill="black"/>
<path d="M287.51 314.614L316.573 308.473L322.649 333.466L310.172 346.325L291.871 340.331L287.51 314.614Z" fill="#83CCBE" stroke="black" stroke-width="0.81" stroke-linecap="round" stroke-linejoin="round"/>
<path d="M231.586 320.357C231.586 320.357 231.438 320.357 231.364 320.327C230.98 320.209 230.773 319.796 230.891 319.412C236.952 300.279 244.817 283.272 244.891 283.11C245.068 282.741 245.497 282.593 245.866 282.755C246.236 282.933 246.384 283.361 246.221 283.73C246.147 283.892 238.312 300.825 232.281 319.87C232.177 320.18 231.896 320.371 231.586 320.371V320.357Z" fill="black"/>
<path d="M327.97 323.974C327.66 323.974 327.364 323.767 327.276 323.457L320.342 300.279C320.224 299.895 320.446 299.482 320.83 299.378C321.215 299.26 321.629 299.482 321.732 299.866L328.665 323.044C328.783 323.427 328.562 323.841 328.177 323.944C328.103 323.959 328.044 323.974 327.97 323.974V323.974Z" fill="black"/>
<path d="M428.701 375.88C421.532 381.992 423.483 392.179 431.495 397.272C431.495 397.272 432.22 413.29 436.359 414.013C440.498 414.736 440.424 397.272 440.424 397.272C440.424 397.272 450.935 414.987 456.035 412.064C461.135 409.156 445.584 393.138 445.584 393.138C445.584 393.138 466.147 401.302 468.261 398.394C470.36 395.485 447.698 386.421 447.698 386.421C447.698 386.421 468.216 384.295 468.408 379.527C468.601 374.758 443.322 376.869 443.322 376.869C443.322 376.869 452.546 367.805 449.959 364.897C447.372 361.988 440.247 371.688 440.247 371.688C440.247 371.688 432.9 368.942 428.701 375.851V375.88Z" fill="#F4D4B3" stroke="#020303" stroke-width="0.81" stroke-linecap="round" stroke-linejoin="round"/>
<path d="M160.332 291.82C167.398 287.849 176.15 265.527 172.262 263.106C168.374 260.685 161.722 273.543 161.722 273.543C161.722 273.543 156.222 245.405 151.122 245.405C146.022 245.405 151.122 268.612 151.122 268.612C151.122 268.612 137.995 250.247 133.871 252.683C129.746 255.119 144.071 274.754 144.071 274.754C144.071 274.754 124.395 266.265 122.695 270.635C120.995 275.005 141.883 281.56 141.883 281.56C141.883 281.56 128.283 282.534 128.519 285.929C128.756 289.325 144.987 294.831 160.332 291.835V291.82Z" fill="#F4D4B3" stroke="#020303" stroke-width="0.81" stroke-linecap="round" stroke-linejoin="round"/>
<path d="M277.753 246.232C276.555 246.232 275.314 246.202 274.027 246.129C257.618 245.198 248.675 238.511 244.048 233.078C239.021 227.158 237.913 221.519 237.868 221.282C237.794 220.884 238.046 220.515 238.445 220.426C238.859 220.352 239.228 220.618 239.302 221.002C239.347 221.223 243.841 242.954 274.116 244.667C304.392 246.394 310.068 227.099 310.305 226.272C310.408 225.888 310.807 225.652 311.207 225.77C311.591 225.874 311.827 226.272 311.724 226.671C311.665 226.878 306.018 246.232 277.782 246.232H277.753Z" fill="black"/>
<path d="M184.709 203.906C184.428 203.906 184.162 203.744 184.044 203.478C180.023 194.739 173.444 196.097 173.385 196.126C172.986 196.215 172.602 195.964 172.513 195.58C172.424 195.196 172.676 194.798 173.06 194.709C173.134 194.694 180.851 193.07 185.374 202.873C185.537 203.242 185.374 203.67 185.019 203.833C184.916 203.877 184.812 203.906 184.709 203.906V203.906Z" fill="black"/>
<path d="M380.968 205.752C380.968 205.752 380.864 205.752 380.82 205.752C380.421 205.663 380.169 205.279 380.258 204.881C380.317 204.6 381.751 198.031 386.363 195.299C388.492 194.03 390.946 193.808 393.651 194.62C394.036 194.739 394.257 195.137 394.139 195.536C394.021 195.92 393.622 196.141 393.237 196.023C390.946 195.344 388.891 195.521 387.117 196.554C383.052 198.961 381.707 205.132 381.692 205.191C381.618 205.53 381.322 205.766 380.982 205.766L380.968 205.752Z" fill="black"/>
<path d="M295.921 108.065C295.921 108.065 295.818 108.065 295.758 108.05C295.359 107.962 295.123 107.563 295.211 107.179L303.638 70.641C303.726 70.2424 304.126 70.0061 304.51 70.0947C304.909 70.1833 305.146 70.5819 305.057 70.9657L296.631 107.519C296.557 107.858 296.246 108.08 295.921 108.08V108.065Z" fill="black"/>
<path d="M245.378 171.9C245.674 177.2 243.59 181.629 240.737 181.777C237.883 181.939 235.326 177.761 235.03 172.461C234.735 167.161 236.819 162.732 239.672 162.585C242.525 162.422 245.083 166.6 245.378 171.9Z" fill="black"/>
<path d="M242.865 168.918C243.043 172.063 241.801 174.69 240.101 174.779C238.401 174.868 236.878 172.402 236.716 169.243C236.538 166.098 237.78 163.471 239.48 163.382C241.18 163.293 242.703 165.759 242.865 168.918Z" fill="white"/>
<path d="M310.246 168.844C310.482 174.144 308.368 178.558 305.515 178.691C302.647 178.824 300.149 174.631 299.898 169.317C299.646 164.017 301.775 159.603 304.628 159.485C307.496 159.352 310.009 163.544 310.246 168.844V168.844Z" fill="black"/>
<path d="M307.762 165.847C307.91 168.992 306.653 171.62 304.953 171.693C303.253 171.767 301.76 169.287 301.612 166.128C301.465 162.983 302.721 160.37 304.421 160.282C306.121 160.208 307.614 162.688 307.762 165.847Z" fill="white"/>
<path d="M267.006 653.513C284.745 645.969 295.995 632.786 284.908 626.63C278.788 627.176 262.674 640.064 250.597 653.144C251.365 657.012 256.377 658.031 267.006 653.513Z" fill="#F4D4B3" stroke="#020303" stroke-width="0.81" stroke-linecap="round" stroke-linejoin="round"/>
<path d="M284.908 626.63C295.995 632.771 284.745 645.969 267.006 653.513C256.377 658.031 251.365 657.027 250.597 653.144C241.357 663.168 234.483 673.295 236.316 678.064C240.529 689.062 292.033 658.326 294.945 645.069C297.858 631.811 287.672 626.379 284.908 626.63V626.63Z" fill="#83CCBE" stroke="black" stroke-width="0.81" stroke-linecap="round" stroke-linejoin="round"/>
<path d="M389.704 619.514C379.297 628.18 373.738 634.277 371.95 638.248C381.307 641.024 414.746 631.324 436.522 597.517C437.083 596.631 437.349 595.819 437.349 595.067C430.446 592.763 406.897 605.194 389.704 619.514V619.514Z" fill="#38A59B" stroke="black" stroke-width="0.81" stroke-linecap="round" stroke-linejoin="round"/>
<path d="M370.102 610.789C363.982 614.037 364.588 632.136 370.102 637.318C370.531 637.717 371.166 638.027 371.935 638.263C373.724 634.292 379.282 628.194 389.689 619.529C406.882 605.223 430.431 592.778 437.335 595.081C437.32 588.172 413.076 588.01 370.087 610.789H370.102Z" fill="#83CCBE" stroke="black" stroke-width="0.81" stroke-linecap="round" stroke-linejoin="round"/>
<path d="M299.868 33.8072H288.323V22.2773H279.231V33.8072H267.686V42.8865H279.231V54.4164H288.323V42.8865H299.868V33.8072Z" fill="#DA1F26" stroke="black" stroke-width="1.08" stroke-miterlimit="10"/>
<g style="mix-blend-mode:multiply">
<path d="M273.333 392.016C222.125 392.917 224.608 354.193 226.308 343.357C223.307 359.183 221.43 374.566 220.336 389.019C238.149 393.109 294.325 403.074 341.053 379.571C336.663 359.331 332.361 341.232 329.73 330.455C329.73 330.455 332.849 390.983 273.318 392.016H273.333Z" fill="#D9D9D9"/>
</g>
<g style="mix-blend-mode:multiply">
<path d="M289.609 486.573C223.928 489.275 219.39 435.08 219.08 427.728C219.42 463.218 223.692 486.898 223.692 486.898C309.862 505.012 356.191 474.276 356.191 474.276C355.925 456.737 350.899 427.3 345.119 398.822C345.533 401.228 359.045 483.709 289.624 486.573H289.609Z" fill="#D9D9D9"/>
</g>
<g style="mix-blend-mode:multiply">
<path d="M341.053 379.556C339.944 380.117 338.821 380.634 337.697 381.165H337.712C337.712 381.165 329.449 405.687 279.083 406.499C228.703 407.311 222.642 389.521 222.642 389.521C221.829 389.344 221.045 389.167 220.336 389.005C219.937 394.245 219.641 399.368 219.449 404.343C239.494 408.329 298.124 416.877 343.714 392.001C342.842 387.794 341.955 383.616 341.068 379.542L341.053 379.556Z" fill="#80C6D6"/>
</g>
<g style="mix-blend-mode:multiply">
<path d="M316.573 308.473L313.483 309.122C314.414 315.913 315.981 339.18 294.147 341.069L310.186 346.31L322.663 333.451L316.587 308.458L316.573 308.473Z" fill="#80C6D6"/>
</g>
<g style="mix-blend-mode:multiply">
<path d="M356.989 297.799C350.987 289.428 343.892 283.287 336.811 278.74C344.306 289.236 351.002 306.834 331.223 324.328C345.473 316.4 356.975 297.799 356.975 297.799H356.989Z" fill="#D9D9D9"/>
</g>
<g style="mix-blend-mode:multiply">
<path d="M196.048 305.151C195.915 305.298 195.841 305.387 195.841 305.387C203.617 320.918 222.406 330.617 222.406 330.617L232.458 316.385L242.718 289.871C221.785 327.546 198.443 307.365 196.063 305.136L196.048 305.151Z" fill="#D9D9D9"/>
</g>
<g style="mix-blend-mode:multiply">
<path d="M192.914 195.3C187.001 156.886 204.474 151.439 204.474 151.439H204.445C197.23 152.531 189.602 153.314 181.487 153.668C181.487 153.668 178.648 186.663 187.725 214.491C202.951 259.135 263.236 266.132 263.236 266.132C263.236 266.132 271.308 266.811 281.035 267.003C229.339 263.785 198.797 233.536 192.899 195.3H192.914Z" fill="#F4D4B3"/>
</g>
<g style="mix-blend-mode:multiply">
<path d="M385.491 151.896C385.491 151.896 361.04 150.981 336.116 139.983C336.116 139.983 349.214 149.977 362.977 156.104C369.54 159.012 385.816 261.674 284.997 267.062C290.777 267.092 296.823 266.9 301.923 266.265C341.438 264.317 358.128 242.01 358.128 242.01C358.128 242.01 370.117 228.428 376.843 215.805C384.368 199.787 385.107 183.297 385.107 183.297C385.107 183.297 387.945 169.391 385.521 151.926L385.491 151.896Z" fill="#F4D4B3"/>
</g>
<g style="mix-blend-mode:multiply" opacity="0.6">
<path d="M398.899 101.82C398.929 101.909 416.387 159.012 361.04 142.773C305.648 126.519 301.598 82.7612 301.598 82.7612C301.598 82.7612 292.033 120.2 231.054 137.178C195.027 147.216 170.621 142.847 160.125 131.095C154.626 168.49 172.986 180.861 172.986 180.861C172.986 180.861 177.318 179.784 181.841 183.902C180.333 167.028 181.486 153.683 181.486 153.683C259.969 150.287 295.921 107.342 295.921 107.342C322.885 149.564 385.491 151.911 385.491 151.911C387.915 169.376 385.077 183.282 385.077 183.282C394.154 178.913 408.804 189.424 401.028 207.066C393.252 224.693 376.813 215.805 376.813 215.805C374.285 220.529 371.033 225.401 367.944 229.638C367.944 229.638 404.029 228.413 415.692 185.718C427.356 143.009 403.304 110.501 403.304 110.501C401.974 107.371 400.481 104.492 398.899 101.82V101.82Z" fill="#AA6F40"/>
</g>
<g style="mix-blend-mode:multiply" opacity="0.6">
<path d="M425.183 200.156C441.666 138.787 406.941 111.047 406.926 111.047C404.694 110.486 403.319 110.486 403.319 110.486C403.319 110.486 427.371 142.994 415.707 185.703C404.043 228.413 367.958 229.623 367.958 229.623C362.799 236.68 358.128 241.995 358.128 241.995C341.127 272.082 355.378 289.059 355.378 289.059L370.767 288.247C366.066 276.762 370.279 267.225 370.279 267.225C369.791 281.619 376.104 289.059 376.104 289.059H392.306C388.58 281.294 390.532 268.361 390.532 268.361C392.468 280.334 399.756 288.262 399.756 288.262L417.082 286.003C396.593 269.351 414.731 239.101 425.183 200.171V200.156Z" fill="#AA6F40"/>
</g>
<g style="mix-blend-mode:multiply">
<path d="M284.997 65.843C211.274 63.7466 200.852 29.6884 200.837 29.6294C199.669 30.7366 199.078 31.3862 199.078 31.3862L210.417 65.843L214.63 78.3029C214.63 78.3029 292.536 48.3784 356.679 91.8111L366.229 73.7707L384.042 35.2689C384.042 35.2689 358.778 67.9393 284.997 65.843V65.843Z" fill="#D9D9D9"/>
</g>
<path d="M178.722 183.386C177.658 183.563 176.623 183.164 176.253 182.397C175.839 181.526 176.475 180.477 177.687 180.079L205.139 170.926C206.351 170.527 207.667 170.911 208.081 171.797C208.495 172.683 207.859 173.716 206.647 174.129L179.195 183.268C179.032 183.327 178.885 183.356 178.722 183.386Z" fill="#64481C" stroke="black" stroke-width="0.48" stroke-miterlimit="10"/>
<path d="M384.959 182.795C384.855 182.795 384.737 182.766 384.619 182.736L343.892 172.491C342.887 172.21 342.31 171.236 342.591 170.32C342.872 169.405 343.907 168.874 344.927 169.169L385.654 179.414C386.659 179.695 387.221 180.669 386.955 181.585C386.703 182.397 385.846 182.899 384.959 182.795V182.795Z" fill="#64481C" stroke="black" stroke-width="0.48" stroke-miterlimit="10"/>
<path d="M288.204 168.254H262.674V173.923H288.204V168.254Z" fill="#70491D" stroke="black" stroke-width="0.48" stroke-miterlimit="10"/>
<path d="M234.143 146.168C218.252 146.168 205.361 157.374 205.361 171.206C205.361 185.039 218.252 196.244 234.143 196.244C250.035 196.244 262.926 185.039 262.926 171.206C262.926 157.374 250.035 146.168 234.143 146.168V146.168ZM234.143 192.716C220.484 192.716 209.397 183.076 209.397 171.192C209.397 159.308 220.469 149.667 234.143 149.667C247.817 149.667 258.875 159.308 258.875 171.192C258.875 183.076 247.803 192.716 234.143 192.716Z" fill="#A0772B"/>
<path d="M234.143 196.584C218.06 196.584 204.962 185.202 204.962 171.206C204.962 157.211 218.06 145.829 234.143 145.829C250.227 145.829 263.325 157.211 263.325 171.206C263.325 185.202 250.227 196.584 234.143 196.584ZM234.143 146.508C218.488 146.508 205.745 157.58 205.745 171.206C205.745 184.833 218.488 195.905 234.143 195.905C249.799 195.905 262.541 184.818 262.541 171.206C262.541 157.595 249.799 146.508 234.143 146.508V146.508ZM234.143 193.056C220.292 193.056 209.012 183.253 209.012 171.206C209.012 159.16 220.292 149.342 234.143 149.342C247.995 149.342 259.274 159.145 259.274 171.206C259.274 183.268 248.01 193.056 234.143 193.056ZM234.143 150.022C220.721 150.022 209.796 159.529 209.796 171.206C209.796 182.884 220.721 192.391 234.143 192.391C247.566 192.391 258.491 182.884 258.491 171.206C258.491 159.529 247.566 150.022 234.143 150.022Z" fill="black"/>
<g opacity="0.13">
<path d="M234.143 149.682C220.484 149.682 209.396 159.322 209.396 171.206C209.396 183.091 220.469 192.731 234.143 192.731C247.817 192.731 258.875 183.091 258.875 171.206C258.875 159.322 247.803 149.682 234.143 149.682V149.682Z" fill="#86D3F1"/>
<path d="M234.143 193.07C220.292 193.07 209.012 183.268 209.012 171.221C209.012 159.175 220.292 149.357 234.143 149.357C247.995 149.357 259.274 159.16 259.274 171.221C259.274 183.283 248.01 193.07 234.143 193.07ZM234.143 150.036C220.72 150.036 209.796 159.544 209.796 171.221C209.796 182.899 220.72 192.406 234.143 192.406C247.566 192.406 258.491 182.899 258.491 171.221C258.491 159.544 247.566 150.036 234.143 150.036Z" fill="black"/>
</g>
<path d="M218.326 167.309C217.542 169.686 216.286 171.472 215.532 171.28C214.763 171.088 214.763 169.007 215.547 166.63C216.33 164.253 217.587 162.467 218.34 162.659C219.109 162.851 219.109 164.932 218.326 167.324V167.309Z" fill="white"/>
<path opacity="0.28" d="M240.116 150.332L211.082 163.397C210.698 164.253 210.372 165.124 210.121 166.025L243.131 151.158C242.156 150.819 241.15 150.538 240.116 150.317V150.332Z" fill="white"/>
<path opacity="0.28" d="M224.002 190.841C227.092 192.052 230.522 192.731 234.144 192.731C246.177 192.731 256.2 185.246 258.417 175.34L224.002 190.841Z" fill="white"/>
<path opacity="0.28" d="M249.858 154.583L209.471 172.771C209.692 175.488 210.506 178.071 211.777 180.418L255.697 160.651C254.189 158.333 252.208 156.281 249.858 154.598V154.583Z" fill="white"/>
<path d="M316.395 143.112C300.504 143.112 287.613 154.317 287.613 168.15C287.613 181.983 300.504 193.188 316.395 193.188C332.287 193.188 345.178 181.983 345.178 168.15C345.178 154.317 332.287 143.112 316.395 143.112ZM316.395 189.66C302.736 189.66 291.649 180.02 291.649 168.136C291.649 156.251 302.721 146.611 316.395 146.611C330.069 146.611 341.127 156.251 341.127 168.136C341.127 180.02 330.055 189.66 316.395 189.66Z" fill="#B7802B"/>
<path d="M316.395 193.513C300.312 193.513 287.214 182.131 287.214 168.136C287.214 154.14 300.312 142.758 316.395 142.758C332.479 142.758 345.577 154.14 345.577 168.136C345.577 182.131 332.479 193.513 316.395 193.513ZM316.395 143.437C300.74 143.437 287.997 154.509 287.997 168.136C287.997 181.762 300.74 192.834 316.395 192.834C332.051 192.834 344.793 181.747 344.793 168.136C344.793 154.524 332.051 143.437 316.395 143.437V143.437ZM316.395 189.985C302.544 189.985 291.264 180.182 291.264 168.136C291.264 156.089 302.544 146.272 316.395 146.272C330.247 146.272 341.526 156.074 341.526 168.136C341.526 180.197 330.262 189.985 316.395 189.985ZM316.395 146.951C302.972 146.951 292.048 156.458 292.048 168.136C292.048 179.813 302.972 189.321 316.395 189.321C329.818 189.321 340.743 179.813 340.743 168.136C340.743 156.458 329.818 146.951 316.395 146.951Z" fill="black"/>
<g opacity="0.13">
<path d="M316.395 146.626C302.736 146.626 291.648 156.266 291.648 168.15C291.648 180.035 302.721 189.675 316.395 189.675C330.069 189.675 341.127 180.035 341.127 168.15C341.127 156.266 330.055 146.626 316.395 146.626Z" fill="#86D3F1"/>
<path d="M316.395 190C302.544 190 291.264 180.197 291.264 168.15C291.264 156.104 302.544 146.286 316.395 146.286C330.247 146.286 341.526 156.089 341.526 168.15C341.526 180.212 330.262 190 316.395 190ZM316.395 146.965C302.972 146.965 292.048 156.473 292.048 168.15C292.048 179.828 302.972 189.335 316.395 189.335C329.818 189.335 340.743 179.828 340.743 168.15C340.743 156.473 329.818 146.965 316.395 146.965Z" fill="black"/>
</g>
<path d="M300.578 164.253C299.794 166.63 298.538 168.416 297.784 168.224C297.015 168.032 297.015 165.951 297.798 163.574C298.582 161.197 299.839 159.411 300.592 159.603C301.361 159.794 301.361 161.876 300.578 164.268V164.253Z" fill="white"/>
<path opacity="0.28" d="M322.368 147.261L293.334 160.326C292.95 161.182 292.624 162.053 292.373 162.954L325.383 148.088C324.408 147.748 323.402 147.468 322.368 147.246V147.261Z" fill="white"/>
<path opacity="0.28" d="M306.254 187.77C309.344 188.981 312.774 189.66 316.395 189.66C328.429 189.66 338.452 182.175 340.669 172.269L306.254 187.77V187.77Z" fill="white"/>
<path opacity="0.28" d="M332.11 151.527L291.723 169.715C291.944 172.432 292.757 175.015 294.029 177.363L337.949 157.595C336.441 155.277 334.46 153.225 332.11 151.542V151.527Z" fill="white"/>
</g>
<rect x="541.381" y="220.022" width="72" height="72" rx="16" transform="rotate(10.6931 541.381 220.022)" fill="white"/>
<g clip-path="url(#clip3_57_98)">
<path fill-rule="evenodd" clip-rule="evenodd" d="M591.968 254.219L564.358 284.728C560.594 288.889 554.145 289.205 549.992 285.433L549.153 284.672C547.137 282.845 545.956 280.34 545.823 277.619C545.69 274.897 546.62 272.289 548.447 270.273L576.049 239.764C577.931 237.68 580.488 236.562 583.086 236.435C585.683 236.308 588.338 237.17 590.415 239.06L591.254 239.821C595.407 243.593 595.723 250.05 591.959 254.211M592.9 237.996L592.061 237.235C589.57 234.976 586.339 233.821 582.974 233.985C579.609 234.15 576.507 235.617 574.241 238.125L546.622 268.627C544.364 271.127 543.208 274.366 543.374 277.739C543.539 281.111 545.006 284.222 547.506 286.489L548.345 287.249C550.924 289.595 554.217 290.665 557.441 290.507C560.665 290.349 563.838 288.961 566.174 286.375L593.785 255.866C598.458 250.702 598.065 242.686 592.909 238.004" fill="#00B0AB"/>
<path d="M591.968 254.219L564.358 284.728C560.594 288.889 554.145 289.205 549.992 285.433L549.153 284.672C547.137 282.845 545.956 280.34 545.823 277.619C545.69 274.897 546.62 272.289 548.447 270.273L576.049 239.764C577.931 237.68 580.488 236.562 583.086 236.435C585.683 236.308 588.338 237.17 590.415 239.06L591.254 239.821C595.407 243.593 595.723 250.05 591.959 254.211M592.9 237.996L592.061 237.235C589.57 234.976 586.339 233.821 582.974 233.985C579.609 234.15 576.507 235.617 574.241 238.125L546.622 268.627C544.364 271.127 543.208 274.366 543.374 277.739C543.539 281.111 545.006 284.222 547.506 286.489L548.345 287.249C550.924 289.595 554.217 290.665 557.441 290.507C560.665 290.349 563.838 288.961 566.174 286.375L593.785 255.866C598.458 250.702 598.065 242.686 592.909 238.004" stroke="#00B0AB" stroke-width="0.75" stroke-miterlimit="10"/>
<path fill-rule="evenodd" clip-rule="evenodd" d="M570.577 271.296L561.294 262.865L570.476 252.718L579.76 261.149L570.577 271.296V271.296ZM571.215 250.078C570.973 249.858 570.653 249.742 570.331 249.758C570.01 249.773 569.703 249.921 569.483 250.163L558.654 262.126C558.434 262.369 558.318 262.688 558.333 263.01C558.349 263.332 558.496 263.639 558.739 263.858L569.839 273.936C570.089 274.164 570.409 274.272 570.722 274.257C571.036 274.241 571.343 274.11 571.57 273.851L582.4 261.888C582.855 261.386 582.817 260.611 582.315 260.156L571.215 250.078V250.078Z" fill="#00B0AB"/>
<path fill-rule="evenodd" clip-rule="evenodd" d="M576.688 248.752C577.088 248.31 577.055 247.626 576.613 247.226C576.172 246.826 575.488 246.86 575.088 247.301C574.688 247.742 574.721 248.426 575.163 248.826C575.604 249.226 576.288 249.193 576.688 248.752Z" fill="#00B0AB"/>
<path fill-rule="evenodd" clip-rule="evenodd" d="M579.44 245.707C579.84 245.266 579.807 244.581 579.365 244.181C578.924 243.781 578.24 243.815 577.84 244.256C577.44 244.697 577.473 245.382 577.914 245.782C578.356 246.182 579.04 246.148 579.44 245.707Z" fill="#00B0AB"/>
<path fill-rule="evenodd" clip-rule="evenodd" d="M582.154 242.714C582.554 242.272 582.52 241.588 582.079 241.188C581.638 240.788 580.954 240.822 580.554 241.263C580.154 241.704 580.187 242.389 580.628 242.788C581.07 243.188 581.754 243.155 582.154 242.714Z" fill="#00B0AB"/>
<path fill-rule="evenodd" clip-rule="evenodd" d="M582.71 254.218C582.31 254.659 582.343 255.344 582.785 255.744C583.226 256.144 583.91 256.11 584.31 255.669C584.71 255.228 584.677 254.543 584.235 254.143C583.794 253.743 583.11 253.777 582.71 254.218Z" fill="#00B0AB"/>
<path fill-rule="evenodd" clip-rule="evenodd" d="M585.462 251.173C585.062 251.614 585.095 252.299 585.537 252.699C585.978 253.099 586.662 253.065 587.062 252.624C587.462 252.183 587.429 251.498 586.987 251.098C586.546 250.699 585.862 250.732 585.462 251.173Z" fill="#00B0AB"/>
<path fill-rule="evenodd" clip-rule="evenodd" d="M581.954 249.262C581.513 248.862 580.829 248.896 580.429 249.337C580.029 249.778 580.062 250.462 580.503 250.862C580.945 251.262 581.629 251.229 582.029 250.788C582.429 250.346 582.395 249.662 581.954 249.262Z" fill="#00B0AB"/>
<path fill-rule="evenodd" clip-rule="evenodd" d="M579.465 253.625C579.865 253.184 579.831 252.499 579.39 252.099C578.949 251.699 578.265 251.733 577.865 252.174C577.465 252.615 577.498 253.3 577.939 253.7C578.381 254.1 579.065 254.066 579.465 253.625Z" fill="#00B0AB"/>
<path fill-rule="evenodd" clip-rule="evenodd" d="M584.667 246.261C584.226 245.861 583.541 245.894 583.141 246.335C582.741 246.777 582.775 247.461 583.216 247.861C583.657 248.261 584.342 248.227 584.742 247.786C585.142 247.345 585.108 246.661 584.667 246.261Z" fill="#00B0AB"/>
<path fill-rule="evenodd" clip-rule="evenodd" d="M587.443 243.198C587.002 242.798 586.318 242.832 585.918 243.273C585.518 243.714 585.551 244.399 585.993 244.799C586.434 245.199 587.118 245.165 587.518 244.724C587.918 244.283 587.885 243.598 587.443 243.198Z" fill="#00B0AB"/>
<path fill-rule="evenodd" clip-rule="evenodd" d="M557.429 270.031C557.829 269.59 557.796 268.906 557.355 268.506C556.913 268.106 556.229 268.139 555.829 268.58C555.429 269.022 555.463 269.706 555.904 270.106C556.345 270.506 557.029 270.473 557.429 270.031Z" fill="#00B0AB"/>
<path fill-rule="evenodd" clip-rule="evenodd" d="M553.077 271.625C552.677 272.066 552.71 272.751 553.151 273.151C553.593 273.551 554.277 273.517 554.677 273.076C555.077 272.635 555.043 271.95 554.602 271.55C554.161 271.15 553.476 271.184 553.077 271.625Z" fill="#00B0AB"/>
<path fill-rule="evenodd" clip-rule="evenodd" d="M550.363 274.618C549.963 275.06 549.997 275.744 550.438 276.144C550.879 276.544 551.564 276.51 551.964 276.069C552.364 275.628 552.33 274.943 551.889 274.544C551.448 274.144 550.763 274.177 550.363 274.618Z" fill="#00B0AB"/>
<path fill-rule="evenodd" clip-rule="evenodd" d="M563.451 275.498C563.051 275.939 563.084 276.623 563.525 277.023C563.967 277.423 564.651 277.39 565.051 276.949C565.451 276.507 565.417 275.823 564.976 275.423C564.535 275.023 563.85 275.057 563.451 275.498Z" fill="#00B0AB"/>
<path fill-rule="evenodd" clip-rule="evenodd" d="M560.699 278.542C560.299 278.984 560.332 279.668 560.773 280.068C561.215 280.468 561.899 280.434 562.299 279.993C562.699 279.552 562.665 278.868 562.224 278.468C561.783 278.068 561.099 278.101 560.699 278.542Z" fill="#00B0AB"/>
<path fill-rule="evenodd" clip-rule="evenodd" d="M557.985 281.536C557.585 281.977 557.618 282.661 558.06 283.061C558.501 283.461 559.185 283.428 559.585 282.986C559.985 282.545 559.952 281.861 559.51 281.461C559.069 281.061 558.385 281.094 557.985 281.536Z" fill="#00B0AB"/>
<path fill-rule="evenodd" clip-rule="evenodd" d="M559.903 273.63C559.462 273.23 558.778 273.263 558.378 273.705C557.978 274.146 558.011 274.83 558.453 275.23C558.894 275.63 559.578 275.597 559.978 275.155C560.378 274.714 560.345 274.03 559.903 273.63Z" fill="#00B0AB"/>
<path fill-rule="evenodd" clip-rule="evenodd" d="M560.942 270.868C560.542 271.309 560.576 271.993 561.017 272.393C561.458 272.793 562.143 272.76 562.543 272.318C562.943 271.877 562.909 271.193 562.468 270.793C562.027 270.393 561.342 270.426 560.942 270.868Z" fill="#00B0AB"/>
<path fill-rule="evenodd" clip-rule="evenodd" d="M557.19 276.623C556.749 276.223 556.064 276.257 555.664 276.698C555.264 277.139 555.298 277.824 555.739 278.224C556.18 278.623 556.865 278.59 557.265 278.149C557.665 277.708 557.631 277.023 557.19 276.623Z" fill="#00B0AB"/>
<path fill-rule="evenodd" clip-rule="evenodd" d="M552.889 279.768C552.489 280.21 552.523 280.894 552.964 281.294C553.405 281.694 554.089 281.66 554.489 281.219C554.889 280.778 554.856 280.094 554.415 279.694C553.973 279.294 553.289 279.327 552.889 279.768Z" fill="#00B0AB"/>
</g>
<defs>
<linearGradient id="paint0_linear_57_98" x1="26" y1="406" x2="122" y2="502" gradientUnits="userSpaceOnUse">
<stop stop-color="white"/>
<stop offset="1" stop-color="white" stop-opacity="0"/>
</linearGradient>
<clipPath id="clip0_57_98">
<rect width="55.9706" height="54.8512" fill="white" transform="translate(12 63.052) rotate(-30.0789)"/>
</clipPath>
<clipPath id="clip1_57_98">
<rect width="60" height="50" fill="white" transform="translate(44 429)"/>
</clipPath>
<clipPath id="clip2_57_98">
<rect width="347" height="692" fill="white" transform="translate(122)"/>
</clipPath>
<clipPath id="clip3_57_98">
<rect width="55.7314" height="55.8222" fill="white" transform="translate(541 235.729) rotate(-2.80696)"/>
</clipPath>
</defs>
</svg>
