<svg width="41" height="53" viewBox="0 0 41 53" fill="none" xmlns="http://www.w3.org/2000/svg">
<g clip-path="url(#clip0_3_271)">
<path d="M40.8063 25.1093C41.0892 24.435 41.0606 23.6706 40.7265 23.0197C40.7108 22.9937 40.6961 22.9703 40.6813 22.9435L37.1387 17.7486C37.1239 17.7278 37.1196 17.7009 37.1274 17.6766C39.0376 12.2547 34.1315 5.14101 29.9136 2.62331C25.0458 -0.280065 17.957 -0.822606 11.8515 1.24009C6.67638 2.99251 2.87944 6.33269 1.15151 10.6548C-0.97478 15.9823 -0.116454 22.3489 3.39582 27.2742C8.08146 33.8454 9.10295 40.466 6.5245 47.5147C6.45507 47.7036 6.46288 47.9125 6.54793 48.0953C6.63298 48.2782 6.7866 48.4195 6.97579 48.4888C7.32902 48.6179 25.3374 48.5339 25.7175 48.5339H25.7288C25.9301 48.5304 26.1228 48.4481 26.2625 48.3033C26.4031 48.1595 26.4803 47.9653 26.4769 47.7634C26.4387 45.14 26.7121 43.0955 27.2623 41.8483C28.6101 38.8184 31.5678 38.4319 33.2046 38.4622C35.1339 38.5116 36.6145 38.2005 37.6125 37.5557C38.2166 37.1613 38.6444 36.5486 38.805 35.8457C38.9013 35.2052 38.8562 34.5517 38.6722 33.9312C38.4865 32.9605 38.7295 32.1077 39.0523 31.2046C39.173 30.8346 39.0836 30.429 38.8206 30.143L38.3728 29.7217L38.897 29.5207C39.3882 29.3179 39.6607 28.7909 39.5427 28.2735L38.9386 26.4457C39.869 26.2108 40.4956 25.7628 40.8063 25.1067V25.1093ZM34.1046 30.3648C34.0248 30.357 25.9831 29.72 20.6821 34.6341C17.4701 37.6103 15.8793 42.0277 15.9513 47.7651C15.9548 47.9662 15.8776 48.1603 15.737 48.3042C15.5964 48.4489 15.4046 48.5313 15.2032 48.5347H15.1919C14.7771 48.5347 14.4386 48.2019 14.4325 47.7877C14.3562 41.5952 16.1145 36.7912 19.6571 33.5117C25.4623 28.1383 33.8842 28.8247 34.2417 28.8551C34.6592 28.8923 34.9664 29.2607 34.9291 29.6775C34.8909 30.0944 34.522 30.4021 34.1046 30.364V30.3648Z" fill="#00B0AB"/>
<path d="M30.5439 47.6916C30.5439 48.1102 30.8833 48.4499 31.3033 48.4499H33.5815C33.9998 48.4499 34.3391 48.1093 34.3391 47.6916C34.3391 47.2738 33.9998 46.9341 33.5815 46.9332H31.3033C30.8833 46.9332 30.5439 47.273 30.5439 47.6916Z" fill="#00B0AB"/>
<path d="M30.3861 51.2614L31.9049 52.7781C32.2017 53.0736 32.6817 53.0728 32.9776 52.7772C33.2735 52.4817 33.2744 52.0015 32.9776 51.706L31.4588 50.1893C31.1603 49.899 30.6838 49.899 30.3853 50.1893C30.2429 50.3314 30.1631 50.5247 30.1631 50.7258C30.1631 50.9269 30.2429 51.1201 30.3853 51.2623L30.3861 51.2614Z" fill="#00B0AB"/>
<path d="M31.9045 42.605L30.3857 44.1217C30.0889 44.4173 30.0889 44.8983 30.3857 45.1938C30.6816 45.4902 31.1633 45.4902 31.4593 45.1938L32.978 43.6771C33.2748 43.3807 33.2748 42.9006 32.978 42.6042C32.6821 42.3086 32.2004 42.3078 31.9045 42.6042V42.605Z" fill="#00B0AB"/>
</g>
<defs>
<clipPath id="clip0_3_271">
<rect width="41" height="53" fill="white"/>
</clipPath>
</defs>
</svg>
