<?xml version="1.0" encoding="utf-8"?>
<!-- Generator: Adobe Illustrator 26.5.0, SVG Export Plug-In . SVG Version: 6.00 Build 0)  -->
<svg version="1.1" id="LOGO" xmlns="http://www.w3.org/2000/svg" xmlns:xlink="http://www.w3.org/1999/xlink" x="0px" y="0px" viewBox="0 0 722.7 230" style="enable-background:new 0 0 722.7 230;" xml:space="preserve">
	<style type="text/css">
	.st2{fill:#18979E;}
	.st3{fill:#00B0AB;}
</style>
	<g>
		<g>
			<path class="st2" d="M97.2,186.3c-19.3,14.7-49.8,14.3-68.6-0.9c-18.7-15.2-18.8-39.6-0.1-54.9s49.2-15.8,68.6-1.1L85.8,139
			c-12.9-9.8-33.3-9.4-45.7,0.7c-12.4,10.2-12.4,26.4,0.1,36.6c12.5,10.1,32.8,10.4,45.7,0.6L97.2,186.3z" />
			<path class="st2" d="M190.3,197.1h-17.7l-6.8-13h-33.5l-6.8,13h-17.7l41.3-78.9L190.3,197.1z M159,171l-9.9-19l-9.9,19H159z" />
			<path class="st2" d="M284.4,197.1h-19.8l-28.1-32.6h-12.1v32.6h-16.3v-78.3h42.2c14.6,0,26.9,8.9,28.4,20.6
			c1.5,11.7-8.3,22.3-22.7,24.7L284.4,197.1z M250.2,151.4c4.5,0.1,8.7-1.7,10.9-4.8c2.3-3.1,2.3-6.9,0-10
			c-2.3-3.1-6.5-4.9-10.9-4.8h-25.8v19.6L250.2,151.4z" />
			<path class="st2" d="M485.2,184v13.1h-57.1v-78.3h16.3V184H485.2z" />
			<path class="st2" d="M503,197.1v-78.3h16.3v78.3H503z" />
			<path class="st2" d="M614.7,118.8v78.6l-61.2-47.9v47.6h-16.3v-78.6l61.2,47.9v-47.6H614.7z" />
			<path class="st2" d="M648.8,131.8v19.6h37.9v13.1h-37.9V184h44.7v13.1h-61v-78.3h61v13.1H648.8z" />
		</g>
		<g>
			<path class="st3" d="M396.2,129.5c-10.4-10.9-28.2-12.5-39.7-3.6l-2.1,1.6l-0.1,0l-0.1,0l-2.1-1.6c-11.5-8.9-29.3-7.2-39.7,3.6
			c-8.6,9-12.2,25.3,3.6,44.1l2.1,2.5c4.9,5.8,10.5,11,16.5,15.7l13.7,10.6c1.7,1.5,3.8,2.2,5.9,2.3c2.1-0.1,4.2-0.8,5.9-2.3
			l13.7-10.6c6-4.6,11.6-9.9,16.5-15.7l2.1-2.5C408.5,154.8,404.9,138.5,396.2,129.5z M381.8,164.3l-2.1,2.4
			c-4.3,5-9.2,9.6-14.4,13.7l-10.9,8.4l-10.9-8.4c-5.2-4-10.1-8.6-14.4-13.7l-2.1-2.4c-8.3-9.9-9.8-19-4.1-25c2.9-3,7.5-5,12.1-5
			c3,0,6.1,0.9,8.6,2.8l3.3,2.5c1.5,1.3,3.1,2.7,3.1,2.7l4.4,4l4.4-4c0,0,1.6-1.4,3.1-2.7l3.3-2.5c2.6-2,5.6-2.8,8.6-2.8
			c4.6,0,9.2,2,12.1,5C391.7,145.3,390.2,154.5,381.8,164.3z" />
		</g>
		<g>
			<path class="st2" d="M145.9,20.5l-30.6,2.3v6.9l11.9,0.5c0.7,8,1.5,18.1,1.9,27.9c-10.3,5.8-20.4,18.3-20.4,33.3
			c0,12.3,9.2,17.2,15.3,17.2c22.3,0,15.9-54.5,15.5-77.9l7.8,0.3L145.9,20.5z M123.3,94.6c-8.3,0-4.4-17.4,6-25.6
			C129.2,83.2,127.8,94.6,123.3,94.6z" />
			<path class="st2" d="M164.7,42.1c-8-0.7-15.4,9.3-16.6,22.5c-0.2,2.2-0.2,4.4-0.1,6.4c0.3,4.1,1.3,7.9,2.8,10.9
			c2.2,4.5,5.6,7.5,9.5,7.8c8,0.7,15.4-9.3,16.6-22.5C178.2,54.1,172.7,42.8,164.7,42.1z M171.2,66.7c-0.5,5.5-3.6,9.7-7,9.4
			c-3.3-0.3-5.6-5-5.1-10.5c0.5-5.5,3.6-9.7,7-9.4C169.4,56.5,171.7,61.2,171.2,66.7z" />
			<path class="st2" d="M345.6,71.1c0,0-0.5,11.8-3.2,11.8c-7.9,0,0.2-60.5,0.2-60.5l-11-1.7c-1.3,8.1-2.2,17-2.8,25.8
			c-2-2.5-4.5-4-7.3-4.3c-8-0.7-15.4,9.3-16.6,22.5c-0.2,2.2-0.2,4.4-0.1,6.4c0,0.5,0.1,1,0.2,1.6c-0.4,1.4-1.2,3.5-2.9,3.5
			c-6.3,0-1.6-32.2-1.6-32.2l-1.9,0c-3.5-0.2-11.2-0.8-18-3.5c-0.7-7.9-2.8-12.1-7.6-12.1c-7.4,0-8.5,12.2-1.9,16.7
			c1.3,0.9,2.7,1.7,4.1,2.4c0.4,10.6-1,22.5-1.1,23.7h0c0,0-0.5,11.8-3.2,11.8c-6.3,0-1.6-39.2-1.6-39.2l-11-1.7
			c-0.2,1.4-0.5,3-0.7,4.7c0,0,0,0,0,0c-2-2.7-4.6-4.3-7.5-4.6c-8-0.7-15.4,9.3-16.7,22.5c-0.2,2.2-0.2,4.3-0.1,6.4h0
			c0,0-0.5,11.8-3.2,11.8c-6.3,0,3.9-40.8-11.8-40.8c-5.1,0-8,6-9.8,13c-1.5-4.9-3.9-8.4-7.9-8.4c-3.4,0-5.9,3.2-7.7,7.5
			c0.1-3.7,0.3-7.7,0.5-12l-11.4,1.3c0.8,19,1.2,26.5,0,46.5h11.4c-0.3-5.1-0.5-9.6-0.6-13.7c0.3-4.7,1.4-17.4,5-17.4
			c3,0,2.8,16,2.1,24.3h10.5c0-1,0.4-6.4,0.2-12.8c0.3-6.9,1.5-16.1,4.9-16.1c5.6,0-4,42.6,11.5,42.6c5.3,0,8.3-6.7,9.9-13.3
			c2.2,3.6,5.2,6,8.7,6.3c4.7,0.4,9.3-2.9,12.5-8.5c0,0,0,0,0,0c1.7,8.9,5,15.6,10.8,15.6c10.9,0,10.7-25.1,10.7-25.7
			c0.6-8.3,1.1-15.4,1.2-21.4c2.5,0.9,5.1,1.5,7.4,2c-1.6,16-0.9,38.4,11.2,38.4c4.1,0,6.9-3.5,8.6-7.5c2.2,4.2,5.4,6.9,9.2,7.2
			c4.9,0.5,9.6-3.2,12.8-9.1c1.7,9.7,5,16.1,10.5,16.1c11.1,0,10.7-25.8,10.7-25.8H345.6z M256.5,66.8c-0.5,5.5-3.6,9.7-7,9.4
			c-3.3-0.3-5.6-5-5.1-10.5c0.5-5.5,3.6-9.7,7-9.4C254.8,56.6,257.1,61.3,256.5,66.8z M328.1,66.8c-0.5,5.5-3.6,9.7-6.9,9.4
			c-3.3-0.3-5.6-5-5.1-10.5c0.5-5.5,3.6-9.7,6.9-9.4C326.3,56.6,328.6,61.3,328.1,66.8z" />
			<path class="st2" d="M385.8,41.9c-6.4-7.3,3.4-13.4,3.4-2.2l18,1.1l0.6-12.6l-8.4,1.2c-1.7-4.2-5.1-9-12.1-9
			c-12.9,0-18,15.2-8.2,27.4c10.9,13.4,21,28.6,11.2,33.7c-3.8,2-13.6-0.3-13.1-15.7H369c0,0-1.8,30.9,20.9,30.9
			c17.8,0,25.7-23.7,13-37.2L385.8,41.9z" />
			<path class="st2" d="M496.8,42.1c-3.7,0-7,2.3-9.6,6v0.1c0,0,0,0,0,0c0.1-10.4,0.4-20.2,0.7-27.4L476.6,22
			c0.6,13.6,0.9,32.9,0.7,50.1c-0.3,1.4-1.1,4-3,4c-6.3,0-1.6-32.2-1.6-32.2l-1.9,0c-3.5-0.2-11.2-0.8-18-3.5
			c-0.7-7.9-2.8-12.1-7.6-12.1c-7.4,0-8.5,12.2-1.9,16.7c1.3,0.9,2.7,1.7,4.1,2.4c0.4,10.6-1,22.5-1.1,23.7h0
			c0,0.2-2.8,8.8-11.2,8.8c-3.1,0-6.3-2.2-8-6.2c20.8-3.6,17.4-31.5,4.4-31.5c-8,0-15.7,9.3-16.6,22.5c-0.2,2.3-0.1,4.6,0.1,6.7
			c0,0,0,0.1,0,0.1c0.5,5,2.1,9.5,4.3,13c3.5,5.6,8.7,9,14.1,9c5.4,0,9.5-2.9,12.5-6.7v0c4-5.2,5.9-12,5.9-15.6h0
			c0.6-8.3,1.1-15.5,1.2-21.5c2.5,0.9,5.1,1.5,7.4,2c-1.6,16-0.9,38.4,11.2,38.4c2.1,0,3.9-0.9,5.3-2.3c-0.1,1.2-0.1,2.3-0.2,3.4
			H488c-0.1-2.1-0.2-4.3-0.3-6.6c2.5,3.3,5.7,5.4,9.1,5.4c8,0,14.5-10.7,14.5-23.9C511.3,52.8,504.8,42.1,496.8,42.1z M425.8,65.7
			c0.4-5.5,4-10.3,6.9-9c1.8,0.8,2.7,8.4-6.9,10.7C425.7,66.8,425.8,66.2,425.8,65.7z M494.1,76c-3.3,0-6.1-4.5-6-10
			c0-5.5,2.7-10,6.1-10c3.3,0,6.1,4.5,6,10C500.2,71.5,497.5,76,494.1,76z" />
			<path class="st2" d="M526.1,37.9c3.8,0,6.9-3.6,6.9-8c0-4.4-3.1-8-6.9-8c-3.8,0-6.9,3.6-6.9,8C519.3,34.3,522.3,37.9,526.1,37.9z" />
			<path class="st2" d="M570.9,71.1L570.9,71.1c0,0-0.5,4.9-3.2,4.9c-6.3,0,3.9-33.8-11.8-33.8c-5.2,0-8.8,6.4-11.3,13.5
			c0.1-4.2,0.3-8.6,0.6-13.5l-11.4,1.3c0.5,11.9,0.8,19.2,0.7,28c-0.2,1-0.9,4.6-3.1,4.6c-6.3,0-1.6-32.2-1.6-32.2l-11-1.7
			c-2.7,15-4.5,47.8,9.9,47.8c2.1,0,3.8-0.9,5.3-2.3c0,0.8-0.1,1.5-0.1,2.3h11.4c-0.3-4.5-0.5-8.4-0.6-12.1c0.1-1.1,3-23.6,8.5-23.6
			c5.6,0-4,35.6,11.5,35.6c10,0,11.9-18.8,11.9-18.8H570.9z" />
		</g>
	</g>
</svg>