<svg width="39" height="59" viewBox="0 0 39 59" fill="none" xmlns="http://www.w3.org/2000/svg">
<g clip-path="url(#clip0_3_250)">
<path d="M37.64 12.6417H20.7064V9.21684C20.7064 8.47574 20.0995 7.87854 19.3465 7.87854C17.2846 7.87854 15.3982 6.64098 15.3982 5.2811C15.3982 3.92123 16.6265 2.68367 18.0304 2.68367C20.1361 2.68367 21.2402 3.99318 21.2402 5.2883C21.2402 6.0294 21.847 6.62659 22.6001 6.62659C23.3532 6.62659 23.9601 6.0294 23.9601 5.2883C23.9601 2.72684 21.8836 0.00708008 18.0304 0.00708008C15.1277 0.00708008 12.671 2.42464 12.671 5.2811C12.671 7.77062 14.9888 9.92915 17.9792 10.44V12.6417H1.35996C0.606862 12.6417 0 13.2389 0 13.98V19.6354C0 20.3765 0.606862 20.9737 1.35996 20.9737H2.79303V27.9961H6.80709C7.48706 27.9961 7.61867 28.1976 7.61867 28.4422C7.61867 28.6868 7.47244 28.8883 6.80709 28.8883H2.79303V30.6223H6.80709C7.48706 30.6223 7.61867 30.8238 7.61867 31.0684C7.61867 31.3131 7.47244 31.5145 6.80709 31.5145H2.79303V33.2485H6.80709C7.48706 33.2485 7.61867 33.45 7.61867 33.6946C7.61867 33.9393 7.47244 34.1407 6.80709 34.1407H2.80765C2.99775 39.6954 7.88189 44.3866 14.572 45.9911V50.5096C14.572 51.2507 15.1789 51.8479 15.9319 51.8479H17.6721V53.5892C17.6721 53.7331 17.8622 57.086 21.6277 58.2444C23.6822 58.8776 25.8903 58.9999 27.3161 58.9999C28.1862 58.9999 28.4786 58.9999 28.8223 58.9495C28.8808 58.9423 28.7345 56.2801 28.5883 56.2801C28.5517 56.2801 25.2396 56.5535 22.4393 55.6901C20.6406 55.1361 20.4213 53.7402 20.392 53.4884V51.8479H22.4393C23.1924 51.8479 23.7992 51.2507 23.7992 50.5096V46.1926C31.0962 44.7895 36.5141 39.7673 36.5141 33.8098V20.9737H37.6327C38.3858 20.9737 38.9927 20.3765 38.9927 19.6354V13.98C38.9927 13.2389 38.3858 12.6417 37.6327 12.6417H37.64ZM21.0866 48.5022H17.2992V46.4588C18.5349 46.5883 19.8363 46.6171 21.0866 46.5379V48.5022ZM33.8015 25.9527H5.51294V20.9665H33.8015V25.9527ZM34.9201 18.2899H4.07987V15.9874H34.9201V18.2899Z" fill="#00B0AB"/>
</g>
<defs>
<clipPath id="clip0_3_250">
<rect width="39" height="59" fill="white"/>
</clipPath>
</defs>
</svg>
