<svg width="60" height="50" viewBox="0 0 60 50" fill="none" xmlns="http://www.w3.org/2000/svg">
<g clip-path="url(#clip0_3_252)">
<path d="M43.7207 26.5896C39.5713 26.5896 35.8145 27.3437 32.9986 28.6412C31.5907 29.2866 30.4129 30.0679 29.5465 31.0054C28.6801 31.9429 28.125 33.0842 28.125 34.3206C28.1724 36.6575 28.125 39.1847 28.125 41.5896C28.125 42.8192 28.6801 43.9673 29.5465 44.9048C30.4129 45.8423 31.5907 46.6236 32.9986 47.2689C35.8145 48.5597 39.5713 49.3206 43.7207 49.3206C47.87 49.3206 51.6268 48.5597 54.4495 47.2689C55.8574 46.6236 57.0352 45.8423 57.9016 44.9048C58.7681 43.9673 59.3231 42.8192 59.3231 41.5896C59.3366 39.2051 59.296 36.6236 59.3231 34.3206C59.3231 33.091 58.7681 31.9497 57.9016 31.0054C57.0352 30.0611 55.8574 29.2866 54.4495 28.6412C51.6336 27.3505 47.87 26.5896 43.7207 26.5896V26.5896ZM43.7207 28.6888C45.352 28.6888 46.9088 28.8247 48.3574 29.0556L38.028 39.3749C36.4508 39.0556 35.0361 38.6141 33.8718 38.0774C32.6467 37.5135 31.6922 36.8545 31.083 36.1956C30.4738 35.5366 30.2166 34.9252 30.2166 34.3138C30.2166 33.7024 30.4738 33.0842 31.083 32.4252C31.6922 31.7662 32.6467 31.1073 33.8718 30.5434C36.3222 29.4225 39.8353 28.682 43.7207 28.682V28.6888ZM50.8145 29.5787C51.8299 29.8505 52.7708 30.1766 53.5763 30.5502C54.8014 31.1141 55.7559 31.773 56.3651 32.432C56.9743 33.091 57.2315 33.7092 57.2315 34.3206C57.2315 34.932 56.9743 35.5434 56.3651 36.2024C55.7559 36.8613 54.8014 37.5203 53.5763 38.0842C51.1259 39.2051 47.6128 39.9456 43.7207 39.9456C42.6038 39.9456 41.5275 39.8776 40.4919 39.7689L50.8078 29.5855L50.8145 29.5787ZM30.2166 38.2676C30.9883 38.9266 31.9224 39.4972 32.9986 39.9863C35.8145 41.2771 39.5713 42.038 43.7207 42.038C47.87 42.038 51.6268 41.2771 54.4495 39.9863C55.519 39.4972 56.4598 38.9266 57.2315 38.2676V41.5828C57.2315 42.1942 56.9743 42.8124 56.3651 43.4714C55.7559 44.1304 54.8014 44.7893 53.5763 45.3532C51.1259 46.4741 47.6128 47.2146 43.7207 47.2146C39.8285 47.2146 36.3154 46.4809 33.8718 45.3532C32.6467 44.7893 31.6922 44.1304 31.0898 43.4714C30.4806 42.8124 30.2234 42.1942 30.2234 41.5828V38.2676H30.2166Z" fill="#00B0AB" stroke="#00B0AB" stroke-width="2" stroke-miterlimit="10"/>
<path d="M21.1596 4.09646L3.34367 23.8043C-0.514629 28.0639 -0.135567 34.6603 4.13564 38.4986C8.40008 42.337 14.9389 41.9633 18.7837 37.7106L36.5995 18.0027C40.4511 13.7432 40.072 7.14673 35.8076 3.30842C31.8342 -0.536693 24.9231 -0.0679431 21.1596 4.09646ZM34.4132 4.87092C37.845 7.95516 38.1361 13.1725 35.0494 16.5897L26.8387 25.6726L14.5057 14.5788L22.7029 5.5095C25.8775 2.00407 30.8527 1.7595 34.4064 4.87092H34.4132ZM25.0517 7.43885L21.2814 11.4198C20.882 11.841 20.9023 12.5068 21.3152 12.9076C21.7349 13.3084 22.3983 13.288 22.7976 12.8736L26.568 8.89266C26.9673 8.47146 26.947 7.8057 26.5341 7.41168C26.0941 6.9769 25.4308 7.05842 25.0517 7.44565V7.43885ZM13.1045 16.1277L25.4308 27.2147L17.2268 36.284C14.1266 39.7079 8.95514 40.0068 5.53005 36.9226C2.09819 33.8383 1.80035 28.6209 4.89376 25.2038L13.1045 16.1277V16.1277Z" fill="#00B0AB" stroke="#00B0AB" stroke-width="2" stroke-miterlimit="10"/>
</g>
<defs>
<clipPath id="clip0_3_252">
<rect width="60" height="50" fill="white"/>
</clipPath>
</defs>
</svg>
