<svg
  width="51"
  height="51"
  viewBox="0 0 51 51"
  fill="none"
  xmlns="http://www.w3.org/2000/svg"
>
  <path
    d="M34.7982 24.2403C34.4647 23.9058 34.0112 23.7177 33.5388 23.7177H27.2814V11.4882C27.2814 10.8518 26.9418 10.2637 26.3903 9.94509L26.39 9.94491C25.8386 9.62744 25.1597 9.62732 24.6089 9.94501L24.6088 9.94509C24.0573 10.2637 23.7177 10.8518 23.7177 11.4882V25.4991C23.7177 25.9715 23.9058 26.4238 24.2397 26.7579C24.5732 27.0925 25.0268 27.2805 25.4991 27.2805H33.5379C34.0105 27.2805 34.4629 27.0923 34.797 26.7582C35.0718 26.4841 35.2477 26.1291 35.3017 25.7491H35.3202V25.4991C35.3202 25.0267 35.1321 24.5744 34.7982 24.2403ZM34.7982 24.2403L34.6211 24.4168M34.7982 24.2403C34.7981 24.2402 34.798 24.2401 34.7979 24.24L34.6211 24.4168M34.6211 24.4168C34.3346 24.1294 33.9448 23.9677 33.5388 23.9677H27.2814L34.6211 24.4168ZM25.5003 0.75H25.5C18.9362 0.75 12.6409 3.35775 7.9989 7.99887L7.99887 7.9989C3.35775 12.6409 0.75 18.9362 0.75 25.5C0.75 32.0638 3.35775 38.3591 7.99887 43.0011L7.9989 43.0011C12.6409 47.6423 18.9362 50.25 25.5 50.25C32.0638 50.25 38.3591 47.6423 43.0011 43.0011L43.0011 43.0011C47.6423 38.3591 50.25 32.0638 50.25 25.5V25.4997C50.2427 18.9378 47.6323 12.6471 42.9931 8.00699L42.993 8.00695C38.3529 3.3677 32.0622 0.757259 25.5003 0.75ZM25.2509 46.6875C19.7217 46.6226 14.4335 44.3985 10.5189 40.4838C6.54544 36.5104 4.31284 31.1219 4.31284 25.5027C4.31284 19.8834 6.54456 14.495 10.518 10.5207C14.4905 6.54725 19.8799 4.31463 25.4991 4.31463C31.1184 4.31463 36.5068 6.54636 40.4812 10.5189C44.4554 14.4922 46.6871 19.8805 46.6881 25.4997C46.6819 31.1173 44.4474 36.5031 40.4757 40.4748C36.5031 44.4465 31.1182 46.681 25.5006 46.6872L25.2509 46.6874V46.6875Z"
    fill="#00B0AB"
    stroke="#00B0AB"
    stroke-width="0.5"
  />
</svg>
