<?xml version="1.0" encoding="utf-8"?>
<!-- Generator: Adobe Illustrator 26.5.0, SVG Export Plug-In . SVG Version: 6.00 Build 0)  -->
<svg version="1.1" id="Layer_1" xmlns="http://www.w3.org/2000/svg" xmlns:xlink="http://www.w3.org/1999/xlink" x="0px" y="0px" viewBox="0 0 508.5 510" style="enable-background:new 0 0 508.5 510;" xml:space="preserve">
    <style type="text/css">
	.st4{fill:#00B0AB;}
</style>
    <g>
        <path class="st4" d="M487.6,240.2l-55.8,0c-1.5-18.8-6-37.2-13.4-54.6c-0.9-2.2-1.9-4.4-3-6.7l48.3-27.9c3.4-2,5.9-5.2,6.9-9
		c1-3.8,0.5-7.8-1.5-11.2c-2.6-4.5-7.5-7.4-12.8-7.4c-2.6,0-5.1,0.7-7.4,2l-48.3,27.9c-6-8.7-12.9-16.8-20.4-24.4
		c-7.6-7.6-15.8-14.4-24.4-20.4l27.9-48.3c4.1-7,1.6-16.1-5.4-20.2c-2.2-1.3-4.8-2-7.4-2c-5.3,0-10.2,2.8-12.8,7.4l-27.9,48.3
		c-2.2-1-4.4-2-6.7-3C306.1,83.5,287.8,79,269,77.5l0-55.8c0-8.1-6.6-14.7-14.7-14.7s-14.7,6.6-14.7,14.7v55.8
		c-18.8,1.5-37.2,6-54.6,13.4c-2.2,0.9-4.4,1.9-6.7,3l-27.9-48.3c-2.6-4.5-7.5-7.4-12.8-7.4c-2.6,0-5.1,0.7-7.4,2
		c-3.4,2-5.8,5.1-6.9,9c-1,3.8-0.5,7.8,1.5,11.2l27.9,48.3c-8.7,6-16.8,12.9-24.4,20.4c-7.6,7.6-14.4,15.8-20.4,24.4l-48.3-27.9
		c-2.2-1.3-4.8-2-7.4-2c-5.3,0-10.2,2.8-12.8,7.4c-4.1,7.1-1.6,16.1,5.4,20.2L93.1,179c-1,2.2-2,4.4-3,6.7
		c-7.4,17.4-11.9,35.8-13.4,54.6l-55.8,0c-8.1,0-14.7,6.6-14.7,14.7s6.6,14.7,14.7,14.7h55.8c1.5,18.8,6,37.2,13.4,54.6
		c0.9,2.2,1.9,4.4,3,6.7l-48.3,27.9c-3.4,2-5.9,5.2-6.9,9c-1,3.8-0.5,7.8,1.5,11.2c2.6,4.5,7.5,7.4,12.8,7.4c2.6,0,5.1-0.7,7.3-2
		l48.4-27.9c6,8.7,12.9,16.8,20.4,24.4c7.6,7.6,15.8,14.4,24.4,20.4l-27.9,48.3c-4.1,7-1.6,16.1,5.4,20.2c2.3,1.3,4.8,2,7.4,2
		c5.3,0,10.1-2.8,12.8-7.4l27.9-48.4c2.2,1,4.4,2,6.7,3c17.4,7.4,35.8,11.9,54.6,13.4v55.8c0,8.1,6.6,14.7,14.7,14.7
		c8.1,0,14.7-6.6,14.7-14.7v-55.8c18.8-1.5,37.2-6,54.6-13.4c2.2-0.9,4.4-1.9,6.7-3l27.9,48.3c2.6,4.5,7.5,7.4,12.8,7.4
		c2.6,0,5.1-0.7,7.3-2c3.4-2,5.9-5.2,6.9-9c1-3.8,0.5-7.8-1.5-11.2l-27.9-48.3c8.7-6,16.8-12.9,24.4-20.4
		c7.5-7.5,14.4-15.7,20.4-24.4l48.3,27.9c2.3,1.3,4.8,2,7.4,2c5.3,0,10.1-2.8,12.8-7.4c4.1-7.1,1.7-16.1-5.4-20.2L415.3,331
		c1-2.2,2-4.4,3-6.7c7.4-17.4,11.9-35.8,13.4-54.6h55.8c8.1,0,14.7-6.6,14.7-14.7C502.3,246.9,495.7,240.2,487.6,240.2z M402.9,255
		c0,81.9-66.7,148.6-148.6,148.6c-81.9,0-148.6-66.6-148.6-148.6c0-81.9,66.7-148.6,148.6-148.6S402.9,173.1,402.9,255z" />
        <path class="st4" d="M190.2,230.1c20.5,0,37.2-16.7,37.2-37.2s-16.7-37.2-37.2-37.2c-20.5,0-37.2,16.7-37.2,37.2
		c0,9.9,3.9,19.3,10.9,26.3C170.9,226.2,180.2,230.1,190.2,230.1z M182.4,192.8c0-2.1,0.8-4,2.3-5.5c1.5-1.5,3.4-2.3,5.5-2.3
		c4.3,0,7.7,3.5,7.7,7.7c0,4.3-3.5,7.7-7.7,7.7C185.9,200.6,182.4,197.1,182.4,192.8z" />
        <path class="st4" d="M324.2,283c-20.5,0-37.2,16.7-37.2,37.2s16.7,37.2,37.2,37.2s37.2-16.7,37.2-37.2S344.8,283,324.2,283z
		 M324.2,328c-4.3,0-7.7-3.5-7.7-7.7c0-4.3,3.5-7.7,7.7-7.7c4.3,0,7.7,3.5,7.7,7.7C332,324.5,328.5,328,324.2,328z" />
        <path class="st4" d="M299,258.9c28.5,0,51.6-23.2,51.6-51.6c0-28.5-23.2-51.6-51.6-51.6c-28.5,0-51.6,23.2-51.6,51.6
		C247.4,235.7,270.5,258.9,299,258.9z M276.9,207.2c0-12.2,9.9-22.1,22.1-22.1c12.2,0,22.1,9.9,22.1,22.1c0,12.2-9.9,22.1-22.1,22.1
		C286.8,229.3,276.9,219.4,276.9,207.2z" />
        <path class="st4" d="M145.6,248.3c-16.6,0-30.1,13.5-30.1,30.1s13.5,30.1,30.1,30.1c16.6,0,30.1-13.5,30.1-30.1
		S162.2,248.3,145.6,248.3z M146.2,278.4c0,0.3-0.3,0.6-0.6,0.6c-0.3,0-0.6-0.3-0.6-0.6c0-0.3,0.3-0.6,0.6-0.6
		C145.9,277.8,146.2,278.1,146.2,278.4z" />
        <path class="st4" d="M227.2,263.6c-25.3,0-45.8,20.6-45.8,45.8c0,25.3,20.6,45.8,45.8,45.8c25.3,0,45.8-20.6,45.8-45.8
		C273,284.2,252.4,263.6,227.2,263.6z M243.5,309.4c0,9-7.3,16.3-16.3,16.3s-16.3-7.3-16.3-16.3s7.3-16.3,16.3-16.3
		S243.5,300.4,243.5,309.4z" />
    </g>
</svg>