<svg width="347" height="692" viewBox="0 0 347 692" fill="none" xmlns="http://www.w3.org/2000/svg">
<g clip-path="url(#clip0_3_326)">
<g style="mix-blend-mode:multiply" opacity="0.13">
<path d="M188.26 692C256.939 692 312.614 686.812 312.614 680.411C312.614 674.011 256.939 668.822 188.26 668.822C119.581 668.822 63.9062 674.011 63.9062 680.411C63.9062 686.812 119.581 692 188.26 692Z" fill="#D78533"/>
</g>
<path d="M162.908 628.578C162.05 628.578 161.282 628.017 161.03 627.161C160.838 626.467 141.783 556.978 139.255 492.685C139.211 491.607 140.053 490.707 141.118 490.663C142.167 490.603 143.099 491.46 143.143 492.523C145.641 556.373 164.593 625.434 164.77 626.113C165.051 627.146 164.445 628.209 163.41 628.505C163.233 628.549 163.07 628.578 162.893 628.578H162.908Z" fill="black"/>
<path d="M246.978 613.564C246.239 613.564 245.53 613.151 245.204 612.428C231.87 583.404 201.846 488.094 201.55 487.149C201.225 486.116 201.802 485.038 202.822 484.713C203.842 484.388 204.936 484.964 205.261 485.983C205.557 486.942 235.507 582.016 248.737 610.818C249.181 611.793 248.752 612.944 247.777 613.387C247.511 613.505 247.244 613.564 246.964 613.564H246.978Z" fill="black"/>
<path d="M97.4489 404.343C95.4679 452.441 101.692 486.883 101.692 486.883C187.861 504.997 234.191 474.261 234.191 474.261C233.895 455.32 228.071 422.502 221.714 392.001C176.124 416.877 117.509 408.329 97.4489 404.343V404.343Z" fill="white" stroke="black" stroke-width="0.81" stroke-linecap="round" stroke-linejoin="round"/>
<path d="M98.3357 389.005C97.9366 394.245 97.6409 399.368 97.4487 404.343C117.494 408.329 176.124 416.877 221.714 392.001C220.842 387.794 219.955 383.616 219.068 379.542C172.324 403.044 116.164 393.079 98.3505 388.99L98.3357 389.005Z" fill="#83CCBE" stroke="black" stroke-width="0.81" stroke-linecap="round" stroke-linejoin="round"/>
<path d="M50.9864 180.847C50.9864 180.847 32.6851 184.405 42.7227 202.194C52.7604 219.983 65.725 214.491 65.725 214.491C62.4284 204.364 60.6988 193.558 59.8414 183.888C55.303 179.769 50.9864 180.847 50.9864 180.847V180.847Z" fill="#F4D4B3" stroke="#020303" stroke-width="0.81" stroke-linecap="round" stroke-linejoin="round"/>
<path d="M263.491 151.896C263.491 151.896 200.885 149.549 173.921 107.327C173.921 107.327 137.969 150.272 59.4866 153.668C59.4866 153.668 56.6483 186.663 65.725 214.491C80.9514 259.135 141.236 266.132 141.236 266.132C141.236 266.132 164.726 268.125 179.908 266.25C219.423 264.302 236.113 241.995 236.113 241.995C236.113 241.995 248.102 228.413 254.828 215.791C262.353 199.773 263.092 183.282 263.092 183.282C263.092 183.282 265.93 169.376 263.506 151.911L263.491 151.896Z" fill="#F4D4B3" stroke="#020303" stroke-width="0.81" stroke-linecap="round" stroke-linejoin="round"/>
<path d="M263.092 183.282C263.092 183.282 262.368 199.787 254.829 215.79C254.829 215.79 271.267 224.693 279.043 207.051C286.819 189.424 272.154 178.913 263.092 183.268V183.282Z" fill="#F4D4B3" stroke="#020303" stroke-width="0.81" stroke-linecap="round" stroke-linejoin="round"/>
<path d="M234.664 91.811L244.214 73.7707L262.028 35.2688C262.028 35.2688 236.128 2.27355 171.009 0.664388C105.89 -0.95954 77.0635 31.3862 77.0635 31.3862L88.402 65.8429L92.6151 78.3029C92.6151 78.3029 170.521 48.3783 234.664 91.811Z" fill="white" stroke="black" stroke-width="0.81" stroke-linecap="round" stroke-linejoin="round"/>
<path d="M293.707 185.704C305.371 142.994 281.319 110.486 281.319 110.486C269.167 81.8608 244.229 73.7707 244.229 73.7707L234.679 91.8111C170.536 48.3784 92.6295 78.303 92.6295 78.303L88.4164 65.843C88.4164 65.843 47.9259 84.7692 39.5587 123.345C30.142 166.778 51.0007 180.847 51.0007 180.847C51.0007 180.847 55.3321 179.769 59.8557 183.888C58.3479 167.014 59.5009 153.668 59.5009 153.668C137.984 150.273 173.936 107.327 173.936 107.327C200.9 149.549 263.506 151.896 263.506 151.896C265.93 169.361 263.092 183.268 263.092 183.268C272.168 178.898 286.818 189.409 279.042 207.051C271.267 224.678 254.828 215.791 254.828 215.791C252.3 220.515 249.048 225.387 245.958 229.624C245.958 229.624 282.043 228.398 293.707 185.704V185.704Z" fill="#B97A30" stroke="black" stroke-width="0.48" stroke-linecap="round" stroke-linejoin="round"/>
<path d="M317.759 166.615C310.634 110.324 281.319 110.486 281.319 110.486C281.319 110.486 305.371 142.994 293.707 185.704C282.043 228.413 245.958 229.624 245.958 229.624C240.799 236.68 236.128 241.995 236.128 241.995C219.127 272.082 233.378 289.059 233.378 289.059L248.767 288.247C244.066 276.762 248.279 267.225 248.279 267.225C247.791 281.619 254.104 289.059 254.104 289.059H270.306C266.58 281.294 268.532 268.362 268.532 268.362C270.468 280.334 277.756 288.262 277.756 288.262L295.082 286.003C272.08 253.333 324.884 222.921 317.759 166.63V166.615Z" fill="#B97A30" stroke="black" stroke-width="0.48" stroke-linecap="round" stroke-linejoin="round"/>
<path d="M234.989 297.799C214.086 268.686 179.923 266.25 179.923 266.25C179.494 266.31 179.065 266.354 178.637 266.398C178.652 266.413 192.222 278.873 179.76 289.059C168.806 298.02 158.709 287.598 158.709 287.598C158.709 287.598 145.316 296.013 136.032 289.059C127.606 282.755 134.731 270.783 134.731 270.783C103.303 271.432 73.8257 305.402 73.8257 305.402C81.6015 320.933 100.391 330.632 100.391 330.632L110.443 316.4C103.658 341.66 100.051 366.476 98.3506 389.005C116.164 393.094 172.339 403.059 219.068 379.556C212.031 347.093 205.202 320.121 205.202 320.121L209.252 324.328C223.503 316.4 235.004 297.799 235.004 297.799H234.989Z" fill="white" stroke="black" stroke-width="0.81" stroke-linecap="round" stroke-linejoin="round"/>
<path d="M171.009 266.93C162.435 267.269 153.255 266.885 147.386 266.561C147.356 271.934 148.229 286.815 158.695 287.613C168.733 288.38 170.654 273.425 171.009 266.93Z" fill="#F4D4B3" stroke="#020303" stroke-width="0.81" stroke-linecap="round" stroke-linejoin="round"/>
<path d="M147.386 266.546C143.646 266.324 141.251 266.132 141.251 266.132C137.082 267.062 134.731 270.783 134.731 270.783C134.731 270.783 127.606 282.755 136.032 289.059C145.316 296.013 158.709 287.598 158.709 287.598C148.228 286.8 147.371 271.919 147.4 266.546H147.386Z" fill="#83CCBE" stroke="black" stroke-width="0.81" stroke-linecap="round" stroke-linejoin="round"/>
<path d="M178.622 266.398C176.227 266.649 173.64 266.826 171.009 266.929C170.654 273.425 168.732 288.365 158.695 287.612C158.695 287.612 168.792 298.02 179.746 289.074C192.208 278.887 178.637 266.427 178.622 266.413V266.398Z" fill="#83CCBE" stroke="black" stroke-width="0.81" stroke-linecap="round" stroke-linejoin="round"/>
<path d="M308.357 378.833C308.017 378.833 307.662 378.744 307.352 378.552C268.724 355.404 224.76 311.971 224.316 311.528C223.562 310.776 223.547 309.55 224.316 308.783C225.07 308.015 226.297 308.015 227.066 308.783C227.509 309.211 271.134 352.333 309.362 375.231C310.279 375.777 310.575 376.973 310.028 377.888C309.658 378.493 309.022 378.833 308.357 378.833V378.833Z" fill="black"/>
<path d="M63.522 338.619C63.3298 338.619 63.1228 338.604 62.9159 338.56C60.8758 338.131 54.1052 332.536 35.3161 289.842C34.8874 288.867 35.3161 287.716 36.3066 287.288C37.297 286.86 38.4501 287.303 38.864 288.277C48.059 309.181 59.4419 331.562 63.3298 334.515C71.7413 326.646 80.8919 316.002 80.9806 315.898C81.6754 315.086 82.9024 314.983 83.7155 315.692C84.5285 316.386 84.632 317.611 83.9224 318.423C83.8189 318.541 74.1361 329.805 65.3994 337.88C64.8672 338.368 64.202 338.619 63.4924 338.619H63.522Z" fill="black"/>
<path d="M165.51 314.614L194.573 308.473L200.649 333.466L188.172 346.325L169.871 340.331L165.51 314.614Z" fill="#83CCBE" stroke="black" stroke-width="0.81" stroke-linecap="round" stroke-linejoin="round"/>
<path d="M109.586 320.357C109.586 320.357 109.438 320.357 109.364 320.327C108.98 320.209 108.773 319.796 108.891 319.412C114.952 300.279 122.817 283.272 122.891 283.11C123.068 282.741 123.497 282.593 123.866 282.755C124.236 282.933 124.384 283.361 124.221 283.73C124.147 283.892 116.312 300.825 110.281 319.87C110.177 320.18 109.896 320.371 109.586 320.371V320.357Z" fill="black"/>
<path d="M205.97 323.974C205.66 323.974 205.364 323.767 205.276 323.457L198.342 300.279C198.224 299.895 198.446 299.482 198.83 299.378C199.215 299.26 199.629 299.482 199.732 299.866L206.665 323.044C206.783 323.427 206.562 323.841 206.177 323.944C206.103 323.959 206.044 323.974 205.97 323.974V323.974Z" fill="black"/>
<path d="M306.701 375.88C299.532 381.992 301.483 392.179 309.495 397.272C309.495 397.272 310.22 413.29 314.359 414.013C318.498 414.736 318.424 397.272 318.424 397.272C318.424 397.272 328.935 414.987 334.035 412.064C339.135 409.156 323.584 393.138 323.584 393.138C323.584 393.138 344.147 401.302 346.261 398.394C348.36 395.485 325.698 386.421 325.698 386.421C325.698 386.421 346.216 384.295 346.408 379.527C346.601 374.758 321.322 376.869 321.322 376.869C321.322 376.869 330.546 367.805 327.959 364.897C325.372 361.988 318.247 371.688 318.247 371.688C318.247 371.688 310.9 368.942 306.701 375.851V375.88Z" fill="#F4D4B3" stroke="#020303" stroke-width="0.81" stroke-linecap="round" stroke-linejoin="round"/>
<path d="M38.332 291.82C45.3982 287.849 54.1497 265.527 50.2618 263.106C46.3739 260.685 39.7216 273.543 39.7216 273.543C39.7216 273.543 34.2223 245.405 29.1222 245.405C24.0221 245.405 29.1222 268.612 29.1222 268.612C29.1222 268.612 15.995 250.247 11.8705 252.683C7.74607 255.119 22.0707 274.754 22.0707 274.754C22.0707 274.754 2.39464 266.265 0.694605 270.635C-1.00543 275.005 19.8829 281.56 19.8829 281.56C19.8829 281.56 6.28256 282.534 6.51908 285.929C6.75561 289.325 22.9873 294.831 38.332 291.835V291.82Z" fill="#F4D4B3" stroke="#020303" stroke-width="0.81" stroke-linecap="round" stroke-linejoin="round"/>
<path d="M155.753 246.232C154.555 246.232 153.314 246.202 152.027 246.129C135.618 245.198 126.675 238.511 122.048 233.078C117.021 227.158 115.913 221.519 115.868 221.282C115.794 220.884 116.046 220.515 116.445 220.426C116.859 220.352 117.228 220.618 117.302 221.002C117.347 221.223 121.841 242.954 152.116 244.667C182.392 246.394 188.068 227.099 188.305 226.272C188.408 225.888 188.807 225.652 189.207 225.77C189.591 225.874 189.827 226.272 189.724 226.671C189.665 226.878 184.018 246.232 155.782 246.232H155.753Z" fill="black"/>
<path d="M62.7089 203.906C62.428 203.906 62.1619 203.744 62.0437 203.478C58.0227 194.739 51.4443 196.097 51.3852 196.126C50.986 196.215 50.6017 195.964 50.513 195.58C50.4243 195.196 50.6756 194.798 51.0599 194.709C51.1338 194.694 58.8505 193.07 63.3741 202.873C63.5367 203.242 63.3741 203.67 63.0193 203.833C62.9159 203.877 62.8124 203.906 62.7089 203.906V203.906Z" fill="black"/>
<path d="M258.968 205.752C258.968 205.752 258.864 205.752 258.82 205.752C258.421 205.663 258.169 205.279 258.258 204.881C258.317 204.6 259.751 198.031 264.363 195.299C266.492 194.03 268.946 193.808 271.651 194.62C272.036 194.739 272.257 195.137 272.139 195.536C272.021 195.92 271.622 196.141 271.237 196.023C268.946 195.344 266.891 195.521 265.117 196.554C261.052 198.961 259.707 205.132 259.692 205.191C259.618 205.53 259.322 205.766 258.982 205.766L258.968 205.752Z" fill="black"/>
<path d="M173.921 108.065C173.921 108.065 173.818 108.065 173.758 108.05C173.359 107.962 173.123 107.563 173.211 107.179L181.638 70.641C181.726 70.2424 182.126 70.0061 182.51 70.0947C182.909 70.1833 183.146 70.5819 183.057 70.9657L174.631 107.519C174.557 107.858 174.246 108.08 173.921 108.08V108.065Z" fill="black"/>
<path d="M123.378 171.9C123.674 177.2 121.59 181.629 118.737 181.777C115.883 181.939 113.326 177.761 113.03 172.461C112.735 167.161 114.819 162.732 117.672 162.585C120.525 162.422 123.083 166.6 123.378 171.9Z" fill="black"/>
<path d="M120.865 168.918C121.043 172.063 119.801 174.69 118.101 174.779C116.401 174.868 114.878 172.402 114.716 169.243C114.538 166.098 115.78 163.471 117.48 163.382C119.18 163.293 120.703 165.759 120.865 168.918Z" fill="white"/>
<path d="M188.246 168.844C188.482 174.144 186.368 178.558 183.515 178.691C180.647 178.824 178.149 174.631 177.898 169.317C177.646 164.017 179.775 159.603 182.628 159.485C185.496 159.352 188.009 163.544 188.246 168.844V168.844Z" fill="black"/>
<path d="M185.762 165.847C185.91 168.992 184.653 171.62 182.953 171.693C181.253 171.767 179.76 169.287 179.612 166.128C179.465 162.983 180.721 160.37 182.421 160.282C184.121 160.208 185.614 162.688 185.762 165.847Z" fill="white"/>
<path d="M145.006 653.513C162.745 645.969 173.995 632.786 162.908 626.63C156.788 627.176 140.674 640.064 128.597 653.144C129.365 657.012 134.377 658.031 145.006 653.513Z" fill="#F4D4B3" stroke="#020303" stroke-width="0.81" stroke-linecap="round" stroke-linejoin="round"/>
<path d="M162.908 626.63C173.995 632.771 162.745 645.969 145.006 653.513C134.377 658.031 129.365 657.027 128.597 653.144C119.357 663.168 112.483 673.295 114.316 678.064C118.529 689.062 170.033 658.326 172.945 645.069C175.858 631.811 165.672 626.379 162.908 626.63V626.63Z" fill="#83CCBE" stroke="black" stroke-width="0.81" stroke-linecap="round" stroke-linejoin="round"/>
<path d="M267.704 619.514C257.297 628.18 251.738 634.277 249.95 638.248C259.307 641.024 292.746 631.324 314.522 597.517C315.083 596.631 315.349 595.819 315.349 595.067C308.446 592.763 284.897 605.194 267.704 619.514V619.514Z" fill="#38A59B" stroke="black" stroke-width="0.81" stroke-linecap="round" stroke-linejoin="round"/>
<path d="M248.102 610.789C241.982 614.037 242.588 632.136 248.102 637.318C248.531 637.717 249.166 638.027 249.935 638.263C251.724 634.292 257.282 628.194 267.689 619.529C284.882 605.223 308.431 592.778 315.335 595.081C315.32 588.172 291.076 588.01 248.087 610.789H248.102Z" fill="#83CCBE" stroke="black" stroke-width="0.81" stroke-linecap="round" stroke-linejoin="round"/>
<path d="M177.868 33.8072H166.323V22.2773H157.231V33.8072H145.686V42.8865H157.231V54.4164H166.323V42.8865H177.868V33.8072Z" fill="#DA1F26" stroke="black" stroke-width="1.08" stroke-miterlimit="10"/>
<g style="mix-blend-mode:multiply">
<path d="M151.333 392.016C100.125 392.917 102.608 354.193 104.308 343.357C101.307 359.183 99.4299 374.566 98.3359 389.019C116.149 393.109 172.325 403.074 219.053 379.571C214.663 359.331 210.361 341.232 207.73 330.455C207.73 330.455 210.849 390.983 151.318 392.016H151.333Z" fill="#D9D9D9"/>
</g>
<g style="mix-blend-mode:multiply">
<path d="M167.609 486.573C101.928 489.275 97.39 435.08 97.0796 427.728C97.4196 463.218 101.692 486.898 101.692 486.898C187.862 505.012 234.191 474.276 234.191 474.276C233.925 456.737 228.899 427.3 223.119 398.822C223.533 401.228 237.045 483.709 167.624 486.573H167.609Z" fill="#D9D9D9"/>
</g>
<g style="mix-blend-mode:multiply">
<path d="M219.053 379.556C217.944 380.117 216.821 380.634 215.697 381.165H215.712C215.712 381.165 207.449 405.687 157.083 406.499C106.703 407.311 100.642 389.521 100.642 389.521C99.8288 389.344 99.0453 389.167 98.3357 389.005C97.9366 394.245 97.6409 399.368 97.4487 404.343C117.494 408.329 176.124 416.877 221.714 392.001C220.842 387.794 219.955 383.616 219.068 379.542L219.053 379.556Z" fill="#80C6D6"/>
</g>
<g style="mix-blend-mode:multiply">
<path d="M194.573 308.473L191.483 309.122C192.414 315.913 193.981 339.18 172.147 341.069L188.186 346.31L200.663 333.451L194.587 308.458L194.573 308.473Z" fill="#80C6D6"/>
</g>
<g style="mix-blend-mode:multiply">
<path d="M234.989 297.799C228.987 289.428 221.892 283.287 214.811 278.74C222.306 289.236 229.002 306.834 209.223 324.328C223.473 316.4 234.975 297.799 234.975 297.799H234.989Z" fill="#D9D9D9"/>
</g>
<g style="mix-blend-mode:multiply">
<path d="M74.0478 305.151C73.9147 305.298 73.8408 305.387 73.8408 305.387C81.6166 320.918 100.406 330.617 100.406 330.617L110.458 316.385L120.718 289.871C99.7849 327.546 76.4426 307.365 74.0626 305.136L74.0478 305.151Z" fill="#D9D9D9"/>
</g>
<g style="mix-blend-mode:multiply">
<path d="M70.9138 195.3C65.0007 156.886 82.4741 151.439 82.4741 151.439H82.4445C75.2304 152.531 67.6024 153.314 59.4866 153.668C59.4866 153.668 56.6483 186.663 65.725 214.491C80.9514 259.135 141.236 266.132 141.236 266.132C141.236 266.132 149.308 266.811 159.035 267.003C107.339 263.785 76.7974 233.536 70.899 195.3H70.9138Z" fill="#F4D4B3"/>
</g>
<g style="mix-blend-mode:multiply">
<path d="M263.491 151.896C263.491 151.896 239.04 150.981 214.116 139.983C214.116 139.983 227.214 149.977 240.977 156.104C247.54 159.012 263.816 261.674 162.997 267.062C168.777 267.092 174.823 266.9 179.923 266.265C219.438 264.317 236.128 242.01 236.128 242.01C236.128 242.01 248.117 228.428 254.843 215.805C262.368 199.787 263.107 183.297 263.107 183.297C263.107 183.297 265.945 169.391 263.521 151.926L263.491 151.896Z" fill="#F4D4B3"/>
</g>
<g style="mix-blend-mode:multiply" opacity="0.6">
<path d="M276.899 101.82C276.929 101.909 294.387 159.012 239.04 142.773C183.648 126.519 179.598 82.7612 179.598 82.7612C179.598 82.7612 170.033 120.2 109.054 137.178C73.0275 147.216 48.6208 142.847 38.125 131.095C32.6257 168.49 50.9861 180.861 50.9861 180.861C50.9861 180.861 55.3175 179.784 59.8411 183.902C58.3332 167.028 59.4863 153.683 59.4863 153.683C137.969 150.287 173.921 107.342 173.921 107.342C200.885 149.564 263.491 151.911 263.491 151.911C265.915 169.376 263.077 183.282 263.077 183.282C272.154 178.913 286.804 189.424 279.028 207.066C271.252 224.693 254.813 215.805 254.813 215.805C252.285 220.529 249.033 225.401 245.944 229.638C245.944 229.638 282.029 228.413 293.692 185.718C305.356 143.009 281.304 110.501 281.304 110.501C279.974 107.371 278.481 104.492 276.899 101.82V101.82Z" fill="#AA6F40"/>
</g>
<g style="mix-blend-mode:multiply" opacity="0.6">
<path d="M303.183 200.156C319.666 138.787 284.941 111.047 284.926 111.047C282.694 110.486 281.319 110.486 281.319 110.486C281.319 110.486 305.371 142.994 293.707 185.703C282.043 228.413 245.958 229.623 245.958 229.623C240.799 236.68 236.128 241.995 236.128 241.995C219.127 272.082 233.378 289.059 233.378 289.059L248.767 288.247C244.066 276.762 248.279 267.225 248.279 267.225C247.791 281.619 254.104 289.059 254.104 289.059H270.306C266.58 281.294 268.532 268.361 268.532 268.361C270.468 280.334 277.756 288.262 277.756 288.262L295.082 286.003C274.593 269.351 292.731 239.101 303.183 200.171V200.156Z" fill="#AA6F40"/>
</g>
<g style="mix-blend-mode:multiply">
<path d="M162.997 65.843C89.2741 63.7466 78.8521 29.6884 78.8373 29.6294C77.6694 30.7366 77.0781 31.3862 77.0781 31.3862L88.4166 65.843L92.6298 78.3029C92.6298 78.3029 170.536 48.3784 234.679 91.8111L244.229 73.7707L262.042 35.2689C262.042 35.2689 236.778 67.9393 162.997 65.843V65.843Z" fill="#D9D9D9"/>
</g>
<path d="M56.722 183.386C55.6577 183.563 54.6228 183.164 54.2533 182.397C53.8394 181.526 54.475 180.477 55.6872 180.079L83.1391 170.926C84.3513 170.527 85.667 170.911 86.0809 171.797C86.4949 172.683 85.8592 173.716 84.647 174.129L57.1951 183.268C57.0325 183.327 56.8846 183.356 56.722 183.386Z" fill="#64481C" stroke="black" stroke-width="0.48" stroke-miterlimit="10"/>
<path d="M262.959 182.795C262.855 182.795 262.737 182.766 262.619 182.736L221.892 172.491C220.887 172.21 220.31 171.236 220.591 170.32C220.872 169.405 221.907 168.874 222.927 169.169L263.654 179.414C264.659 179.695 265.221 180.669 264.955 181.585C264.703 182.397 263.846 182.899 262.959 182.795V182.795Z" fill="#64481C" stroke="black" stroke-width="0.48" stroke-miterlimit="10"/>
<path d="M166.204 168.254H140.674V173.923H166.204V168.254Z" fill="#70491D" stroke="black" stroke-width="0.48" stroke-miterlimit="10"/>
<path d="M112.143 146.168C96.2516 146.168 83.3608 157.374 83.3608 171.206C83.3608 185.039 96.2516 196.244 112.143 196.244C128.035 196.244 140.926 185.039 140.926 171.206C140.926 157.374 128.035 146.168 112.143 146.168V146.168ZM112.143 192.716C98.4838 192.716 87.3966 183.076 87.3966 171.192C87.3966 159.308 98.469 149.667 112.143 149.667C125.817 149.667 136.875 159.308 136.875 171.192C136.875 183.076 125.803 192.716 112.143 192.716Z" fill="#A0772B"/>
<path d="M112.143 196.584C96.0596 196.584 82.9619 185.202 82.9619 171.206C82.9619 157.211 96.0596 145.829 112.143 145.829C128.227 145.829 141.325 157.211 141.325 171.206C141.325 185.202 128.227 196.584 112.143 196.584ZM112.143 146.508C96.4883 146.508 83.7454 157.58 83.7454 171.206C83.7454 184.833 96.4883 195.905 112.143 195.905C127.799 195.905 140.541 184.818 140.541 171.206C140.541 157.595 127.799 146.508 112.143 146.508V146.508ZM112.143 193.056C98.2918 193.056 87.0124 183.253 87.0124 171.206C87.0124 159.16 98.2918 149.342 112.143 149.342C125.995 149.342 137.274 159.145 137.274 171.206C137.274 183.268 126.01 193.056 112.143 193.056ZM112.143 150.022C98.7205 150.022 87.7959 159.529 87.7959 171.206C87.7959 182.884 98.7205 192.391 112.143 192.391C125.566 192.391 136.491 182.884 136.491 171.206C136.491 159.529 125.566 150.022 112.143 150.022Z" fill="black"/>
<g opacity="0.13">
<path d="M112.143 149.682C98.4837 149.682 87.3965 159.322 87.3965 171.206C87.3965 183.091 98.4689 192.731 112.143 192.731C125.817 192.731 136.875 183.091 136.875 171.206C136.875 159.322 125.803 149.682 112.143 149.682V149.682Z" fill="#86D3F1"/>
<path d="M112.143 193.07C98.2916 193.07 87.0122 183.268 87.0122 171.221C87.0122 159.175 98.2916 149.357 112.143 149.357C125.995 149.357 137.274 159.16 137.274 171.221C137.274 183.283 126.01 193.07 112.143 193.07ZM112.143 150.036C98.7203 150.036 87.7957 159.544 87.7957 171.221C87.7957 182.899 98.7203 192.406 112.143 192.406C125.566 192.406 136.491 182.899 136.491 171.221C136.491 159.544 125.566 150.036 112.143 150.036Z" fill="black"/>
</g>
<path d="M96.3257 167.309C95.5422 169.686 94.2857 171.472 93.5317 171.28C92.763 171.088 92.763 169.007 93.5465 166.63C94.33 164.253 95.5866 162.467 96.3405 162.659C97.1092 162.851 97.1092 164.932 96.3257 167.324V167.309Z" fill="white"/>
<path opacity="0.28" d="M118.116 150.332L89.082 163.397C88.6976 164.253 88.3724 165.124 88.1211 166.025L121.131 151.158C120.156 150.819 119.15 150.538 118.116 150.317V150.332Z" fill="white"/>
<path opacity="0.28" d="M102.002 190.841C105.092 192.052 108.522 192.731 112.144 192.731C124.177 192.731 134.2 185.246 136.417 175.34L102.002 190.841Z" fill="white"/>
<path opacity="0.28" d="M127.858 154.583L87.4707 172.771C87.6924 175.488 88.5055 178.071 89.7768 180.418L133.697 160.651C132.189 158.333 130.208 156.281 127.858 154.598V154.583Z" fill="white"/>
<path d="M194.395 143.112C178.504 143.112 165.613 154.317 165.613 168.15C165.613 181.983 178.504 193.188 194.395 193.188C210.287 193.188 223.178 181.983 223.178 168.15C223.178 154.317 210.287 143.112 194.395 143.112ZM194.395 189.66C180.736 189.66 169.649 180.02 169.649 168.136C169.649 156.251 180.721 146.611 194.395 146.611C208.069 146.611 219.127 156.251 219.127 168.136C219.127 180.02 208.055 189.66 194.395 189.66Z" fill="#B7802B"/>
<path d="M194.395 193.513C178.312 193.513 165.214 182.131 165.214 168.136C165.214 154.14 178.312 142.758 194.395 142.758C210.479 142.758 223.577 154.14 223.577 168.136C223.577 182.131 210.479 193.513 194.395 193.513ZM194.395 143.437C178.74 143.437 165.997 154.509 165.997 168.136C165.997 181.762 178.74 192.834 194.395 192.834C210.051 192.834 222.793 181.747 222.793 168.136C222.793 154.524 210.051 143.437 194.395 143.437V143.437ZM194.395 189.985C180.544 189.985 169.264 180.182 169.264 168.136C169.264 156.089 180.544 146.272 194.395 146.272C208.247 146.272 219.526 156.074 219.526 168.136C219.526 180.197 208.262 189.985 194.395 189.985ZM194.395 146.951C180.972 146.951 170.048 156.458 170.048 168.136C170.048 179.813 180.972 189.321 194.395 189.321C207.818 189.321 218.743 179.813 218.743 168.136C218.743 156.458 207.818 146.951 194.395 146.951Z" fill="black"/>
<g opacity="0.13">
<path d="M194.395 146.626C180.736 146.626 169.648 156.266 169.648 168.15C169.648 180.035 180.721 189.675 194.395 189.675C208.069 189.675 219.127 180.035 219.127 168.15C219.127 156.266 208.055 146.626 194.395 146.626Z" fill="#86D3F1"/>
<path d="M194.395 190C180.544 190 169.264 180.197 169.264 168.15C169.264 156.104 180.544 146.286 194.395 146.286C208.247 146.286 219.526 156.089 219.526 168.15C219.526 180.212 208.262 190 194.395 190ZM194.395 146.965C180.972 146.965 170.048 156.473 170.048 168.15C170.048 179.828 180.972 189.335 194.395 189.335C207.818 189.335 218.743 179.828 218.743 168.15C218.743 156.473 207.818 146.965 194.395 146.965Z" fill="black"/>
</g>
<path d="M178.578 164.253C177.794 166.63 176.538 168.416 175.784 168.224C175.015 168.032 175.015 165.951 175.798 163.574C176.582 161.197 177.839 159.411 178.592 159.603C179.361 159.794 179.361 161.876 178.578 164.268V164.253Z" fill="white"/>
<path opacity="0.28" d="M200.368 147.261L171.334 160.326C170.95 161.182 170.624 162.053 170.373 162.954L203.383 148.088C202.408 147.748 201.402 147.468 200.368 147.246V147.261Z" fill="white"/>
<path opacity="0.28" d="M184.254 187.77C187.344 188.981 190.774 189.66 194.395 189.66C206.429 189.66 216.452 182.175 218.669 172.269L184.254 187.77V187.77Z" fill="white"/>
<path opacity="0.28" d="M210.11 151.527L169.723 169.715C169.944 172.432 170.757 175.015 172.029 177.363L215.949 157.595C214.441 155.277 212.46 153.225 210.11 151.542V151.527Z" fill="white"/>
</g>
<defs>
<clipPath id="clip0_3_326">
<rect width="347" height="692" fill="white"/>
</clipPath>
</defs>
</svg>
