<svg width="29" height="34" viewBox="0 0 29 34" fill="none" xmlns="http://www.w3.org/2000/svg">
<path d="M14.3108 33.3333C14.1044 33.3349 13.8981 33.2859 13.7135 33.1894L7.71165 30.0842C6.00691 29.2 4.67466 28.2096 3.63437 27.0558C1.35746 24.5323 0.0923251 21.2931 0.0705124 17.9329L4.07865e-05 6.87328C-0.0066708 5.59686 0.815498 4.45118 2.04707 4.02135L13.0675 0.177381C13.7219 -0.0546957 14.4518 -0.0595987 15.1179 0.16594L26.1803 3.87753C27.4185 4.29102 28.2558 5.42852 28.2625 6.7033L28.333 17.7711C28.3548 21.1264 27.1316 24.3803 24.8916 26.9299C23.8614 28.1001 22.5409 29.1052 20.8546 30.0041L14.9082 33.1829C14.7219 33.281 14.5172 33.3316 14.3108 33.3333Z" fill="#18979E"/>
<path d="M13.0321 20.5345C12.7099 20.5378 12.3878 20.4201 12.1394 20.1815L8.94639 17.1089C8.45142 16.6333 8.44638 15.8586 8.93465 15.3765C9.4246 14.8944 10.2199 14.8895 10.7149 15.3651L13.0136 17.5747L18.6279 12.0408C19.1161 11.5587 19.9131 11.5554 20.4081 12.031C20.9014 12.5066 20.9064 13.2813 20.4182 13.7634L13.9197 20.17C13.6747 20.4119 13.3542 20.5329 13.0321 20.5345Z" fill="white"/>
</svg>
