<svg width="39" height="55" viewBox="0 0 39 55" fill="none" xmlns="http://www.w3.org/2000/svg">
<g clip-path="url(#clip0_13_47)">
<path d="M5.28406 25.2739H33.7155C34.7599 25.2739 35.6883 24.3485 35.5723 23.3075C34.7599 16.483 29.5959 10.9886 22.9812 9.54277V3.4701C22.9812 1.56154 21.4146 0 19.4998 0C17.585 0 16.0184 1.56154 16.0184 3.4701V9.54277C9.40373 10.9886 4.23964 16.483 3.42732 23.3075C3.31127 24.3485 4.23964 25.2739 5.28406 25.2739Z" fill="#00B0AB"/>
<path d="M8.06962 28.6283C6.79311 28.3391 5.57462 29.091 5.2845 30.3055L4.76229 32.5611C4.47217 33.7756 5.22648 35.048 6.44497 35.3372C6.61904 35.395 6.79311 35.395 6.96718 35.395C8.0116 35.395 8.93997 34.701 9.23009 33.6599L9.7523 31.4044C10.0424 30.133 9.28811 28.9185 8.06962 28.6283Z" fill="#00B0AB"/>
<path d="M5.74833 38.1133C4.47182 37.8241 3.25333 38.576 2.96321 39.7905L2.441 42.0461C2.15088 43.2606 2.90519 44.533 4.12368 44.8221C4.29775 44.88 4.47182 44.88 4.64589 44.88C5.69031 44.88 6.61868 44.186 6.9088 43.1449L7.43101 40.8894C7.72113 39.6759 6.96682 38.4035 5.74833 38.1133Z" fill="#00B0AB"/>
<path d="M3.36943 47.5981C2.15093 47.309 0.87442 48.0608 0.584304 49.2754L0.0620932 51.5309C-0.228024 52.7455 0.52628 54.0178 1.74477 54.307C1.91884 54.3648 2.09291 54.3648 2.26698 54.3648C3.3114 54.3648 4.23978 53.6708 4.52989 52.6298L5.0521 50.3742C5.40024 49.1607 4.64594 47.9452 3.36943 47.5981Z" fill="#00B0AB"/>
<path d="M15.6706 28.5704C14.394 28.4547 13.2916 29.4379 13.1756 30.6525L13.0015 32.9659C12.8854 34.2382 13.8718 35.3371 15.0903 35.4528H15.2644C16.4829 35.4528 17.4693 34.5274 17.5853 33.3129L17.7594 30.9995C17.9335 29.785 16.9471 28.6283 15.6706 28.5704Z" fill="#00B0AB"/>
<path d="M14.1037 48.0608C12.8271 47.9451 11.7247 48.9283 11.6087 50.1428L11.4346 52.4562C11.3185 53.7286 12.3049 54.8275 13.5234 54.9431H13.6975C14.916 54.9431 15.9024 54.0178 16.0184 52.8032L16.1925 50.4898C16.3085 49.2753 15.3802 48.1764 14.1037 48.0608Z" fill="#00B0AB"/>
<path d="M14.9162 38.2867C13.6396 38.1711 12.5372 39.1543 12.4212 40.3688L12.2471 42.6822C12.131 43.9546 13.1174 45.0534 14.3359 45.1691H14.51C15.7285 45.1691 16.7149 44.2437 16.8309 43.0292L17.005 40.7158C17.121 39.5013 16.1927 38.4024 14.9162 38.2867Z" fill="#00B0AB"/>
<path d="M24.896 48.0608C23.6195 48.1764 22.6911 49.2753 22.8072 50.5477L22.9812 52.8611C23.0973 54.0756 24.0837 55.001 25.3022 55.001H25.4762C26.7527 54.8853 27.6811 53.7864 27.5651 52.5141L27.391 50.2007C27.275 48.8705 26.1145 47.9451 24.896 48.0608Z" fill="#00B0AB"/>
<path d="M23.6777 35.4528H23.8517C25.1282 35.3371 26.0566 34.2383 25.9406 32.9659L25.7665 30.6525C25.6504 29.3801 24.49 28.3969 23.2715 28.5704C21.995 28.6861 21.0666 29.785 21.1826 31.0573L21.3567 33.3707C21.4728 34.5274 22.5172 35.4528 23.6777 35.4528Z" fill="#00B0AB"/>
<path d="M24.4902 45.1691H24.6642C25.9407 45.0534 26.8691 43.9546 26.7531 42.6822L26.579 40.3688C26.4629 39.0964 25.3605 38.1132 24.084 38.2867C22.8075 38.4024 21.8791 39.5013 21.9951 40.7736L22.1692 43.087C22.2853 44.3016 23.2717 45.1691 24.4902 45.1691Z" fill="#00B0AB"/>
<path d="M34.9344 44.8221C36.1529 44.533 36.9072 43.2606 36.617 42.0461L36.0948 39.7905C35.8047 38.576 34.5282 37.8241 33.3097 38.1133C32.0912 38.4025 31.3369 39.6748 31.627 40.8894L32.1492 43.1449C32.3813 44.186 33.3677 44.88 34.4122 44.88C34.5282 44.88 34.7603 44.88 34.9344 44.8221Z" fill="#00B0AB"/>
<path d="M38.9378 51.5309L38.4156 49.2754C38.1255 48.0608 36.849 47.2511 35.6305 47.5982C34.412 47.8873 33.6577 49.1597 33.9478 50.3742L34.47 52.6298C34.7021 53.6708 35.6885 54.3648 36.733 54.3648C36.907 54.3648 37.0811 54.3648 37.2552 54.307C38.4737 54.0178 39.2269 52.8033 38.9378 51.5309Z" fill="#00B0AB"/>
<path d="M32.6131 35.3372C33.8316 35.048 34.5859 33.7756 34.2958 32.5611L33.7735 30.3055C33.4834 29.091 32.2069 28.3391 30.9884 28.6283C29.7699 28.9175 29.0156 30.1898 29.3057 31.4044L29.828 33.6599C30.0601 34.701 31.0464 35.395 32.0909 35.395C32.2069 35.395 32.381 35.3372 32.6131 35.3372Z" fill="#00B0AB"/>
</g>
<defs>
<clipPath id="clip0_13_47">
<rect width="39" height="55" fill="white"/>
</clipPath>
</defs>
</svg>
