<svg width="24" height="15" viewBox="0 0 24 15" fill="none" xmlns="http://www.w3.org/2000/svg">
<g clip-path="url(#clip0_9_853)">
<path d="M11.9743 9.15335L1.18524 0.357404C1.5619 0.125806 1.99476 0.00190615 2.43667 0H21.5633C22.0048 0.00190615 22.4371 0.12533 22.8138 0.356927L11.9743 9.15335ZM23.4467 0.910665L12.5486 9.79572C12.3933 9.92105 12.2 9.98968 12 9.98968C11.8005 9.98968 11.6071 9.92105 11.4514 9.79572L0.553333 0.910665C0.198095 1.34098 0.00238095 1.8809 0 2.43892V12.5611C0.000952381 13.2077 0.257619 13.8272 0.714286 14.2847C1.17095 14.7422 1.79048 14.999 2.43667 15H21.5633C22.2095 14.999 22.8286 14.7422 23.2857 14.2847C23.7429 13.8272 23.9995 13.2077 24 12.5611V2.43892C23.9976 1.8809 23.8019 1.3405 23.4467 0.910665Z" fill="#583FBC"/>
</g>
<defs>
<clipPath id="clip0_9_853">
<rect width="24" height="15" fill="white"/>
</clipPath>
</defs>
</svg>
