<svg width="59" height="59" viewBox="0 0 59 59" fill="none" xmlns="http://www.w3.org/2000/svg">
<g clip-path="url(#clip0_3_226)">
<path fill-rule="evenodd" clip-rule="evenodd" d="M50.9679 21.2188L23.3577 51.7282C19.5938 55.8889 13.1449 56.2051 8.9921 52.4326L8.15296 51.6719C6.13729 49.8446 4.95639 47.3399 4.82296 44.6185C4.68953 41.8972 5.61975 39.289 7.447 37.2733L35.0489 6.76431C36.9307 4.67984 39.4881 3.56248 42.0858 3.43512C44.6834 3.30775 47.3379 4.16958 49.4145 6.05997L50.2537 6.82067C54.4065 10.5932 54.7231 17.0503 50.9592 21.211M51.9001 4.99573L51.061 4.23503C48.5695 1.97645 45.3385 0.820507 41.9739 0.985474C38.6093 1.15044 35.5069 2.61691 33.2409 5.12528L5.62206 35.6268C3.36389 38.1265 2.20835 41.3658 2.37372 44.7386C2.53909 48.1115 4.00597 51.2221 6.50608 53.4886L7.34522 54.2493C9.9236 56.5945 13.2165 57.6648 16.4409 57.5067C19.6654 57.3486 22.8378 55.9613 25.1744 53.3751L52.7846 22.8657C57.4582 17.7015 57.0651 9.68581 51.9088 5.00357" fill="#00B0AB"/>
<path d="M50.9679 21.2188L23.3577 51.7282C19.5938 55.8889 13.1449 56.2051 8.9921 52.4326L8.15296 51.6719C6.13729 49.8446 4.95639 47.3399 4.82296 44.6185C4.68953 41.8972 5.61975 39.289 7.447 37.2733L35.0489 6.76431C36.9307 4.67984 39.4881 3.56248 42.0858 3.43512C44.6834 3.30775 47.3379 4.16958 49.4145 6.05997L50.2537 6.82067C54.4065 10.5932 54.7231 17.0503 50.9592 21.211M51.9001 4.99573L51.061 4.23503C48.5695 1.97645 45.3385 0.820507 41.9739 0.985474C38.6093 1.15044 35.5069 2.61691 33.2409 5.12528L5.62206 35.6268C3.36389 38.1265 2.20835 41.3658 2.37372 44.7386C2.53909 48.1115 4.00597 51.2221 6.50608 53.4886L7.34522 54.2493C9.9236 56.5945 13.2165 57.6648 16.4409 57.5067C19.6654 57.3486 22.8378 55.9613 25.1744 53.3751L52.7846 22.8657C57.4582 17.7015 57.0651 9.68581 51.9088 5.00357" stroke="#00B0AB" stroke-width="0.75" stroke-miterlimit="10"/>
<path fill-rule="evenodd" clip-rule="evenodd" d="M29.5771 38.2961L20.2938 29.8649L29.4763 19.7181L38.7596 28.1494L29.5771 38.2961V38.2961ZM30.2148 17.078C29.9726 16.8584 29.6528 16.7418 29.3312 16.7576C29.0095 16.7734 28.7026 16.9207 28.4831 17.1629L17.6537 29.1263C17.4341 29.3686 17.3175 29.6884 17.3333 30.01C17.3491 30.3316 17.4964 30.6385 17.7386 30.8581L28.8386 40.9362C29.0894 41.1637 29.4089 41.272 29.7222 41.2566C30.0356 41.2413 30.3433 41.1104 30.5703 40.8513L41.3997 28.8879C41.8546 28.3861 41.8165 27.611 41.3148 27.1561L30.2148 17.078V17.078Z" fill="#00B0AB"/>
<path fill-rule="evenodd" clip-rule="evenodd" d="M35.6882 15.7515C36.0881 15.3103 36.0546 14.6259 35.6134 14.2259C35.1722 13.8259 34.4877 13.8595 34.0877 14.3007C33.6878 14.7419 33.7213 15.4264 34.1625 15.8263C34.6037 16.2263 35.2882 16.1927 35.6882 15.7515Z" fill="#00B0AB"/>
<path fill-rule="evenodd" clip-rule="evenodd" d="M38.4401 12.7068C38.8401 12.2656 38.8065 11.5812 38.3653 11.1812C37.9241 10.7813 37.2396 10.8148 36.8397 11.256C36.4397 11.6972 36.4733 12.3817 36.9145 12.7816C37.3557 13.1816 38.0402 13.148 38.4401 12.7068Z" fill="#00B0AB"/>
<path fill-rule="evenodd" clip-rule="evenodd" d="M41.154 9.71368C41.5539 9.27248 41.5204 8.58801 41.0792 8.18806C40.638 7.7881 39.9535 7.82166 39.5536 8.26286C39.1536 8.70405 39.1872 9.38852 39.6284 9.78848C40.0696 10.1884 40.754 10.1549 41.154 9.71368Z" fill="#00B0AB"/>
<path fill-rule="evenodd" clip-rule="evenodd" d="M41.7098 21.2179C41.3098 21.6591 41.3434 22.3436 41.7846 22.7436C42.2258 23.1435 42.9103 23.11 43.3102 22.6688C43.7102 22.2276 43.6766 21.5431 43.2354 21.1431C42.7942 20.7432 42.1098 20.7767 41.7098 21.2179Z" fill="#00B0AB"/>
<path fill-rule="evenodd" clip-rule="evenodd" d="M44.4618 18.1733C44.0618 18.6145 44.0954 19.2989 44.5366 19.6989C44.9778 20.0988 45.6622 20.0653 46.0622 19.6241C46.4621 19.1829 46.4286 18.4984 45.9874 18.0985C45.5462 17.6985 44.8617 17.7321 44.4618 18.1733Z" fill="#00B0AB"/>
<path fill-rule="evenodd" clip-rule="evenodd" d="M40.9542 16.262C40.513 15.8621 39.8285 15.8956 39.4286 16.3368C39.0286 16.778 39.0622 17.4625 39.5034 17.8625C39.9446 18.2624 40.629 18.2288 41.029 17.7877C41.4289 17.3465 41.3954 16.662 40.9542 16.262Z" fill="#00B0AB"/>
<path fill-rule="evenodd" clip-rule="evenodd" d="M38.465 20.6248C38.865 20.1836 38.8314 19.4991 38.3902 19.0992C37.949 18.6992 37.2645 18.7328 36.8646 19.174C36.4646 19.6152 36.4982 20.2997 36.9394 20.6996C37.3806 21.0996 38.0651 21.066 38.465 20.6248Z" fill="#00B0AB"/>
<path fill-rule="evenodd" clip-rule="evenodd" d="M43.6671 13.2606C43.2259 12.8606 42.5414 12.8942 42.1414 13.3354C41.7415 13.7766 41.775 14.461 42.2162 14.861C42.6574 15.2609 43.3419 15.2274 43.7419 14.7862C44.1418 14.345 44.1083 13.6605 43.6671 13.2606Z" fill="#00B0AB"/>
<path fill-rule="evenodd" clip-rule="evenodd" d="M46.4434 10.1983C46.0022 9.79835 45.3178 9.83191 44.9178 10.2731C44.5179 10.7143 44.5514 11.3988 44.9926 11.7987C45.4338 12.1987 46.1183 12.1651 46.5182 11.7239C46.9182 11.2827 46.8846 10.5983 46.4434 10.1983Z" fill="#00B0AB"/>
<path fill-rule="evenodd" clip-rule="evenodd" d="M16.4294 37.0313C16.8293 36.5901 16.7958 35.9056 16.3546 35.5057C15.9134 35.1057 15.2289 35.1393 14.8289 35.5805C14.429 36.0217 14.4625 36.7062 14.9037 37.1061C15.3449 37.5061 16.0294 37.4725 16.4294 37.0313Z" fill="#00B0AB"/>
<path fill-rule="evenodd" clip-rule="evenodd" d="M12.0765 38.6252C11.6765 39.0664 11.7101 39.7508 12.1513 40.1508C12.5925 40.5507 13.277 40.5172 13.6769 40.076C14.0769 39.6348 14.0433 38.9503 13.6021 38.5504C13.1609 38.1504 12.4765 38.184 12.0765 38.6252Z" fill="#00B0AB"/>
<path fill-rule="evenodd" clip-rule="evenodd" d="M9.36312 41.6183C8.96317 42.0595 8.99673 42.744 9.43793 43.1439C9.87912 43.5439 10.5636 43.5103 10.9635 43.0691C11.3635 42.628 11.3299 41.9435 10.8887 41.5435C10.4475 41.1436 9.76308 41.1771 9.36312 41.6183Z" fill="#00B0AB"/>
<path fill-rule="evenodd" clip-rule="evenodd" d="M22.4505 42.4977C22.0506 42.9389 22.0841 43.6234 22.5253 44.0233C22.9665 44.4233 23.651 44.3897 24.0509 43.9485C24.4509 43.5073 24.4173 42.8229 23.9761 42.4229C23.535 42.023 22.8505 42.0565 22.4505 42.4977Z" fill="#00B0AB"/>
<path fill-rule="evenodd" clip-rule="evenodd" d="M19.6986 45.5424C19.2986 45.9836 19.3322 46.6681 19.7734 47.068C20.2146 47.468 20.899 47.4344 21.299 46.9932C21.699 46.552 21.6654 45.8676 21.2242 45.4676C20.783 45.0676 20.0985 45.1012 19.6986 45.5424Z" fill="#00B0AB"/>
<path fill-rule="evenodd" clip-rule="evenodd" d="M16.9847 48.5356C16.5848 48.9768 16.6183 49.6612 17.0595 50.0612C17.5007 50.4611 18.1852 50.4276 18.5851 49.9864C18.9851 49.5452 18.9515 48.8607 18.5103 48.4608C18.0691 48.0608 17.3847 48.0944 16.9847 48.5356Z" fill="#00B0AB"/>
<path fill-rule="evenodd" clip-rule="evenodd" d="M18.9034 40.6297C18.4622 40.2298 17.7777 40.2633 17.3778 40.7045C16.9778 41.1457 17.0114 41.8302 17.4526 42.2301C17.8938 42.6301 18.5782 42.5965 18.9782 42.1553C19.3782 41.7141 19.3446 41.0297 18.9034 40.6297Z" fill="#00B0AB"/>
<path fill-rule="evenodd" clip-rule="evenodd" d="M19.9422 37.8676C19.5423 38.3088 19.5758 38.9933 20.017 39.3932C20.4582 39.7932 21.1427 39.7596 21.5426 39.3184C21.9426 38.8772 21.909 38.1927 21.4678 37.7928C21.0266 37.3928 20.3422 37.4264 19.9422 37.8676Z" fill="#00B0AB"/>
<path fill-rule="evenodd" clip-rule="evenodd" d="M16.19 43.6231C15.7488 43.2232 15.0643 43.2567 14.6644 43.6979C14.2644 44.1391 14.298 44.8236 14.7392 45.2235C15.1804 45.6235 15.8649 45.5899 16.2648 45.1487C16.6648 44.7075 16.6312 44.0231 16.19 43.6231Z" fill="#00B0AB"/>
<path fill-rule="evenodd" clip-rule="evenodd" d="M11.889 46.7685C11.489 47.2097 11.5226 47.8941 11.9638 48.2941C12.405 48.6941 13.0895 48.6605 13.4894 48.2193C13.8894 47.7781 13.8558 47.0936 13.4146 46.6937C12.9734 46.2937 12.289 46.3273 11.889 46.7685Z" fill="#00B0AB"/>
</g>
<defs>
<clipPath id="clip0_3_226">
<rect width="55.7314" height="55.8222" fill="white" transform="translate(0 2.72925) rotate(-2.80696)"/>
</clipPath>
</defs>
</svg>
