<svg width="1440" height="900" viewBox="0 0 1440 900" fill="none" xmlns="http://www.w3.org/2000/svg">
<path d="M1677.9 254.445C1653.7 262.085 1517.28 523.768 1273.91 600.604C935.816 707.345 580.738 23.0506 152.932 380.735C-186.226 664.301 -348.059 734.278 -443.869 641.782" stroke="#ECEEFF"/>
<path d="M1636.87 78.5623C1619.06 100.888 1517.28 523.768 1273.91 600.604C935.816 707.345 544.363 121.691 116.557 479.375C-222.601 762.941 -288.216 755.331 -428.088 709.43" stroke="#ECEEFF"/>
<path d="M1703.15 362.682C1678.95 370.322 1518.55 529.18 1275.17 606.016C937.079 712.756 548.547 -96.7674 166.069 309.768C-112.907 606.291 -286.435 743.874 -431.244 695.9" stroke="#ECEEFF"/>
<rect x="1179.45" y="197" width="96" height="96" rx="16" transform="rotate(14.139 1179.45 197)" fill="white" fill-opacity="0.2" stroke="url(#paint0_linear_64_100)"/>
<rect x="1188.16" y="211.568" width="72" height="72" rx="16" transform="rotate(14.139 1188.16 211.568)" fill="white"/>
<path d="M1207.06 278.61C1220.08 268.216 1232.23 262.623 1232.23 262.623C1235.16 261.012 1237.39 258.239 1238.21 254.824C1239.58 249.16 1236.7 243.281 1231.34 240.819C1225.98 238.359 1219.53 239.97 1216.08 244.682C1215.43 238.878 1210.63 234.284 1204.75 233.757C1198.88 233.232 1193.45 236.904 1191.83 242.505C1190.85 245.876 1191.41 249.389 1193.16 252.248C1193.16 252.248 1200.92 263.123 1207.06 278.609" fill="#583FBC"/>
<circle cx="134" cy="627" r="8" fill="white"/>
<circle cx="313" cy="294" r="13" fill="white"/>
<circle cx="1328" cy="653" r="13" fill="white"/>
<defs>
<linearGradient id="paint0_linear_64_100" x1="1179.45" y1="197" x2="1275.45" y2="293" gradientUnits="userSpaceOnUse">
<stop stop-color="white"/>
<stop offset="1" stop-color="white" stop-opacity="0"/>
</linearGradient>
</defs>
</svg>
