<svg width="55" height="55" viewBox="0 0 55 55" fill="none" xmlns="http://www.w3.org/2000/svg">
<path d="M50.2775 15.8575L50.2773 15.8576L44.7388 19.0547C44.8959 19.3746 45.0448 19.6997 45.1828 20.0285C46.0139 21.996 46.5034 24.0636 46.6465 26.1909H53.043L50.2775 15.8575ZM50.2775 15.8575C50.9002 15.4976 51.1192 14.6983 50.7546 14.0699M50.2775 15.8575L50.7546 14.0699M41.0702 13.9297L41.0706 13.9301C41.9519 14.8145 42.7399 15.7706 43.4282 16.7933L48.9664 13.5932L41.0702 13.9297ZM41.0702 13.9297C40.1889 13.0483 39.2302 12.2575 38.2068 11.5711L41.4038 6.03282C41.7641 5.40948 41.5511 4.60615 40.9267 4.24526C40.3034 3.885 39.5 4.09795 39.1391 4.7224L39.139 4.72256L35.9417 10.2614M41.0702 13.9297L35.9417 10.2614M35.9417 10.2614C35.6233 10.1053 35.3001 9.95743 34.9697 9.81729L34.9693 9.81714C33.0042 8.98613 30.9347 8.49351 28.8068 8.35291V1.95577C28.8068 1.23128 28.2185 0.65 27.4999 0.65C26.78 0.65 26.1942 1.23587 26.1942 1.95577V8.35445C24.0671 8.49753 21.9998 8.98696 20.0324 9.81791M35.9417 10.2614L9.81786 34.9685C8.98694 33.0011 8.49753 30.9339 8.35445 28.8068H1.95577C1.23587 28.8068 0.65 28.2209 0.65 27.501C0.65 26.7824 1.23128 26.1942 1.95577 26.1942H8.35401C8.4946 24.0662 8.98723 21.9968 9.81823 20.0317L9.81825 20.0316C9.95846 19.7002 10.1064 19.3767 10.2625 19.0582L4.72365 15.8608L4.7235 15.8608C4.09904 15.4999 3.8861 14.6965 4.24635 14.0732C4.60722 13.4488 5.41044 13.2358 6.03376 13.596C6.03381 13.596 6.03386 13.596 6.03391 13.5961L11.5722 16.7931C12.2586 15.7697 13.0494 14.811 13.9308 13.9297L13.9312 13.9293C14.8156 13.0479 15.7717 12.26 16.7944 11.5717L13.5975 6.0346C13.5975 6.03445 13.5974 6.03431 13.5973 6.03417C13.2326 5.40589 13.4514 4.60664 14.0739 4.2466C14.7023 3.88168 15.5019 4.10068 15.8619 4.7235L15.8619 4.72365L19.059 10.262C19.3785 10.1048 19.7036 9.95591 20.0324 9.81791M20.0324 9.81791C20.0325 9.81789 20.0325 9.81788 20.0325 9.81786L20.168 10.1406L20.0318 9.81818C20.032 9.81809 20.0322 9.818 20.0324 9.81791ZM34.9681 45.1828C34.9679 45.1829 34.9676 45.183 34.9674 45.1831L34.832 44.8607L34.9681 45.1828ZM34.9681 45.1828C35.2967 45.0449 35.6216 44.8961 35.9409 44.739L39.138 50.2773L39.1381 50.2776C39.3806 50.6967 39.8206 50.9308 40.272 50.9308C40.4949 50.9308 40.7217 50.8722 40.9253 50.7548L40.9256 50.7546C41.5482 50.3948 41.7673 49.5956 41.4028 48.9672L34.9681 45.1828ZM50.7546 14.0699C50.3948 13.4472 49.5955 13.2282 48.9671 13.5928L50.7546 14.0699ZM10.9296 27.4999C10.9296 36.6377 18.3633 44.0714 27.501 44.0714C36.6389 44.0714 44.0758 36.6377 44.079 27.4999H10.9296ZM10.9296 27.4999C10.9296 18.3621 18.3633 10.9252 27.5043 10.9252M10.9296 27.4999L27.5043 10.9252M27.5043 10.9252C36.6454 10.9252 44.079 18.3588 44.079 27.4998L27.5043 10.9252ZM41.4023 48.9664L38.2054 43.4282C39.2282 42.7399 40.1843 41.952 41.0687 41.0706C41.9536 40.1888 42.742 39.2299 43.4277 38.2068L48.9661 41.4039L48.9663 41.404C49.1697 41.5213 49.3953 41.58 49.6195 41.58C50.0703 41.58 50.5096 41.3457 50.753 40.9277L50.7535 40.9267C51.1138 40.3034 50.9009 39.5 50.2764 39.1391L50.2762 39.139L44.7374 35.9417C44.8935 35.6233 45.0414 35.3001 45.1815 34.9697L45.1817 34.9693C46.0127 33.0042 46.5053 30.9347 46.6459 28.8068H53.0441C53.7681 28.8068 54.3499 28.2202 54.3499 27.501C54.3499 26.7831 53.7708 26.1921 53.0452 26.1909L41.4023 48.9664Z" fill="#00B0AB" stroke="#00B0AB" stroke-width="0.7"/>
<path d="M20.4877 24.4638C22.5663 24.4638 24.259 22.7711 24.259 20.6925C24.259 18.614 22.5663 16.9212 20.4877 16.9212C18.4091 16.9212 16.7164 18.614 16.7164 20.6925C16.7164 22.771 18.408 24.4638 20.4877 24.4638ZM20.4877 19.5372C21.1254 19.5372 21.6431 20.0549 21.6431 20.6925C21.6431 21.3302 21.1254 21.8479 20.4877 21.8479C19.85 21.8479 19.3323 21.3302 19.3323 20.6925C19.3323 20.0549 19.85 19.5372 20.4877 19.5372Z" fill="#00B0AB" stroke="#00B0AB" stroke-width="0.7"/>
<path d="M35.1649 30.8756C33.0864 30.8756 31.3937 32.5683 31.3937 34.6469C31.3937 36.7254 33.0864 38.4182 35.1649 38.4182C37.2435 38.4182 38.9362 36.7254 38.9362 34.6469C38.9362 32.5683 37.2435 30.8756 35.1649 30.8756ZM35.1649 35.8022C34.5273 35.8022 34.0096 35.2845 34.0096 34.6469C34.0096 34.0092 34.5273 33.4915 35.1649 33.4915C35.8026 33.4915 36.3203 34.0092 36.3203 34.6469C36.3203 35.2845 35.8026 35.8022 35.1649 35.8022Z" fill="#00B0AB" stroke="#00B0AB" stroke-width="0.7"/>
<path d="M32.4025 27.6179C35.3514 27.6179 37.7492 25.2201 37.7492 22.2711C37.7492 19.3222 35.3514 16.9244 32.4025 16.9244C29.4535 16.9244 27.0558 19.3222 27.0558 22.2711C27.0558 25.2201 29.4535 27.6179 32.4025 27.6179ZM32.4025 19.5371C33.9072 19.5371 35.1333 20.7631 35.1333 22.2679C35.1333 23.7726 33.9072 24.9987 32.4025 24.9987C30.8977 24.9987 29.6717 23.7726 29.6717 22.2679C29.6717 20.7629 30.8947 19.5371 32.4025 19.5371Z" fill="#00B0AB" stroke="#00B0AB" stroke-width="0.7"/>
<path d="M15.6071 27.0711C13.9607 27.0711 12.6241 28.4116 12.6241 30.0542C12.6241 31.697 13.9643 33.0372 15.6071 33.0372C17.25 33.0372 18.5902 31.697 18.5902 30.0542C18.5902 28.4116 17.2535 27.0711 15.6071 27.0711ZM15.6071 30.4246C15.4052 30.4246 15.24 30.2594 15.24 30.0575C15.24 29.8555 15.4052 29.6903 15.6071 29.6903C15.8091 29.6903 15.9742 29.8555 15.9742 30.0575C15.9742 30.2594 15.8091 30.4246 15.6071 30.4246Z" fill="#00B0AB" stroke="#00B0AB" stroke-width="0.7"/>
<path d="M24.537 28.7483C21.9373 28.7483 19.8253 30.8603 19.8253 33.46C19.8253 36.0597 21.9373 38.1717 24.537 38.1717C27.1367 38.1717 29.2488 36.0597 29.2488 33.46C29.2488 30.8601 27.1333 28.7483 24.537 28.7483ZM24.537 35.5569C23.3815 35.5569 22.4412 34.6166 22.4412 33.4611C22.4412 32.3056 23.3815 31.3653 24.537 31.3653C25.6925 31.3653 26.6328 32.3056 26.6328 33.4611C26.6328 34.6165 25.6915 35.5569 24.537 35.5569Z" fill="#00B0AB" stroke="#00B0AB" stroke-width="0.7"/>
</svg>
