<svg width="1440" height="600" viewBox="0 0 1440 600" fill="none" xmlns="http://www.w3.org/2000/svg">
    <path d="M-45 444.986C-27.5 444.986 105.5 595.486 281.5 595.486C526 595.486 657.644 47.2286 1002 200.486C1275 321.986 1395 334.986 1445 250.486" stroke="#F07272" stroke-opacity="0.4" />
    <path d="M-45 314.986C-29.5 326.486 105.5 595.486 281.5 595.486C526 595.486 697.644 107.228 1042 260.486C1315 381.986 1358 362.486 1445 300.486" stroke="#F07272" stroke-opacity="0.4" />
    <path d="M-45 524.986C-27.5 524.986 105.5 599.486 281.5 599.486C526 599.486 660.499 -42.2534 982 154.486C1216.5 297.986 1355 354.986 1445 290.486" stroke="#F07272" stroke-opacity="0.4" />
    <circle cx="1065" cy="8" r="8" fill="white" />
    <circle cx="990" cy="556" r="8" fill="#F07272" fill-opacity="0.5" />
    <circle cx="624" cy="80" r="13" fill="#F07272" fill-opacity="0.3" />
    <circle cx="1140" cy="52" r="13" fill="#FFF9F4" />
</svg>